<?xml version="1.0" encoding="UTF-8" standalone="no"?>
<!-- Created with Inkscape (http://www.inkscape.org/) -->

<svg
   xmlns:dc="http://purl.org/dc/elements/1.1/"
   xmlns:cc="http://creativecommons.org/ns#"
   xmlns:rdf="http://www.w3.org/1999/02/22-rdf-syntax-ns#"
   xmlns:svg="http://www.w3.org/2000/svg"
   xmlns="http://www.w3.org/2000/svg"
   xmlns:sodipodi="http://sodipodi.sourceforge.net/DTD/sodipodi-0.dtd"
   xmlns:inkscape="http://www.inkscape.org/namespaces/inkscape"
   width="2279.4407"
   height="1719.9598"
   id="svg2"
   version="1.1"
   inkscape:version="0.48.1 r9760"
   sodipodi:docname="dirt-bubbles-film-01.svg">
  <title
     id="title2983">Dirt Series</title>
  <defs
     id="defs4" />
  <sodipodi:namedview
     id="base"
     pagecolor="#ffffff"
     bordercolor="#666666"
     borderopacity="1.0"
     inkscape:pageopacity="0.0"
     inkscape:pageshadow="2"
     inkscape:zoom="0.175"
     inkscape:cx="1303.3017"
     inkscape:cy="-179.73818"
     inkscape:document-units="px"
     inkscape:current-layer="layer1"
     showgrid="false"
     inkscape:window-width="946"
     inkscape:window-height="1003"
     inkscape:window-x="1435"
     inkscape:window-y="21"
     inkscape:window-maximized="0"
     fit-margin-top="0"
     fit-margin-left="0"
     fit-margin-right="0"
     fit-margin-bottom="0"
     inkscape:snap-page="true" />
  <metadata
     id="metadata7">
    <rdf:RDF>
      <cc:Work
         rdf:about="">
        <dc:format>image/svg+xml</dc:format>
        <dc:type
           rdf:resource="http://purl.org/dc/dcmitype/StillImage" />
        <dc:title>Dirt Series</dc:title>
        <dc:creator>
          <cc:Agent>
            <dc:title>Jon Phillips</dc:title>
          </cc:Agent>
        </dc:creator>
        <cc:license
           rdf:resource="http://creativecommons.org/licenses/publicdomain/" />
      </cc:Work>
      <cc:License
         rdf:about="http://creativecommons.org/licenses/publicdomain/">
        <cc:permits
           rdf:resource="http://creativecommons.org/ns#Reproduction" />
        <cc:permits
           rdf:resource="http://creativecommons.org/ns#Distribution" />
        <cc:permits
           rdf:resource="http://creativecommons.org/ns#DerivativeWorks" />
      </cc:License>
    </rdf:RDF>
  </metadata>
  <g
     inkscape:label="Layer 1"
     inkscape:groupmode="layer"
     id="layer1"
     transform="translate(524.83669,3011.9836)">
    <path
       style="fill:#F3F2ED"
       d="m 78.03186,-1309.9463 c 3.10608,-3.6266 1.89761,5.0354 0,0 z m 499.49701,-1.4547 c -5.9945,-29.7236 44.844,13.652 0,0 z m -84.4181,-0.5696 c 1.4434,-2.6634 0.4458,4.3115 0,0 z m 625.92113,0.1903 c 0.4558,-2.6853 5.9133,0.8965 0,0 z m 68.469,-0.6572 c 1.5924,-4.005 2.9825,3.1776 0,0 z m -1105.86845,-2.616 c 2.45588,-10.7423 0.65687,8.3509 0,0 z m 885.39946,1.6072 c 2.8802,-1.9056 2.3337,3.4347 0,0 z m -706.18755,-0.6241 c 4.38348,-1.4325 0.4334,1.9253 0,0 z m 1233.00004,0 c 4.3835,-1.4325 0.4334,1.9253 0,0 z m -1173.00004,-2 c 4.38348,-1.4325 0.4334,1.9253 0,0 z m 818.26644,-0.9002 c 1.4435,-2.6634 0.4459,4.3115 0,0 z m -135.2664,-1.0998 c 4.3836,-1.4325 0.4335,1.9253 0,0 z m 223,0 c 4.3835,-1.4325 0.4334,1.9253 0,0 z m -523.11133,-0.949 c -3.3606,-5.5049 11.4497,1.1762 0,0 z m 350.11133,-0.051 c 4.3836,-1.4325 0.4335,1.9253 0,0 z m -18.7336,-1.9002 c 1.4435,-2.6634 0.4459,4.3115 0,0 z m 567.4211,0.5833 c 2.4663,-3.5623 1.2094,3.6561 0,0 z m -1547.68754,-1.6831 c 4.38348,-1.4325 0.4334,1.9253 0,0 z m 650.18751,-0.7579 c 1.8976,-5.0354 3.1061,3.6266 0,0 z m 388.81253,0.7579 c 4.3836,-1.4325 0.4335,1.9253 0,0 z m 17.2664,-0.9002 c 1.4435,-2.6634 0.4459,4.3115 0,0 z m -1343.07894,-0.4167 c -2.02641,-2.8276 4.35917,1.3719 0,0 z m 1232.81254,-1.6831 c 4.3836,-1.4325 0.4335,1.9253 0,0 z m 406.1875,-0.3759 c 2.8802,-1.9056 2.3337,3.4347 0,0 z m -1068.00004,-1 c 2.8802,-1.9056 2.33371,3.4347 0,0 z m -281.84211,-2.941 c 0.87512,-4.5074 0.87512,4.5074 0,0 z m 573.92102,0.4167 c 1.4434,-2.6634 0.4458,4.3115 0,0 z m 476.00003,0 c 1.4435,-2.6634 0.4459,4.3115 0,0 z m -717.26644,-0.1 c 4.38348,-1.4325 0.4334,1.9253 0,0 z m 312.18751,-0.3167 c -3.6939,-4.5522 6.0343,2.1667 0,0 z m 65,-0.059 c 2.8802,-1.9056 2.3337,3.4347 0,0 z m 456.81253,-0.6241 c 4.3835,-1.4325 0.4334,1.9253 0,0 z m 35.6875,-0.3169 c 2.4663,-3.5623 1.2094,3.6561 0,0 z m -472.50003,-1.0314 c 3.9042,-3.2605 4.008,1.7751 0,0 z m -202,-1.9686 c 2.4662,-3.5623 1.2094,3.6561 0,0 z m 177.5157,-0.9746 c 4.1929,-5.5631 2.7784,3.2215 0,0 z m 6.5632,-0.6087 c 1.4435,-2.6634 0.4459,4.3115 0,0 z m 426.63143,-2.4167 c 0.3599,-7.0685 3.3463,7.047 0,0 z m -778.71034,-2.941 c 1.77695,-6.787 3.09154,5.4059 0,0 z m 656.81254,1.2579 c 4.3836,-1.4325 0.4335,1.9253 0,0 z m 178,-3 c 4.3835,-1.4325 0.4334,1.9253 0,0 z m -404.31253,-1.3169 c 2.5632,-3.7039 3.8442,3.5852 0,0 z m 26.5,-2 c -0.6297,-3.064 5.0389,2.0265 0,0 z m 44,0.607 c 0.4558,-2.6853 5.9133,0.8965 0,0 z m 460.63843,-1.107 c 2.3735,-5.247 0.8654,5.2821 0,0 z m -1344.12836,-0.5163 c 3.08944,-2.9454 0.78267,3.5697 0,0 z m 302.04879,-2.5155 c -3.58611,-4.1333 6.28627,1.8816 0,0 z m 1234.25367,-1.1513 c 4.3835,-1.4325 0.4334,1.9253 0,0 z m -133.8125,-2.3759 c 2.8802,-1.9056 2.3337,3.4347 0,0 z m -947.00003,-0.941 c 2.5549,-3.5875 2.5549,3.5875 0,0 z m -417.50001,-2 c 1.20936,-3.6562 2.46629,3.5623 0,0 z m 36.95888,-1.0665 c -2.15671,-3.5438 2.81687,0.03 0,0 z m 64.43972,0.6318 c -23.59029,-5.3696 15.25799,-37.5023 12.88477,-13.3259 -3.3953,9.5377 -4.10015,12.0106 -12.88477,13.3259 z m 835.10144,-1.5653 c 2.4663,-3.5623 1.2094,3.6561 0,0 z m -706.00004,-2 c 2.46629,-3.5623 1.20936,3.6562 0,0 z m 284.81251,-4.6831 c 4.3835,-1.4325 0.4334,1.9253 0,0 z m -397.81251,-2.3169 c 2.55494,-3.5875 2.55494,3.5875 0,0 z m 387.07891,-4.5833 c 1.4434,-2.6634 0.4458,4.3115 0,0 z m 395.00004,-2 c 1.4435,-2.6634 0.4459,4.3115 0,0 z m 449.99999,0 c 1.4434,-2.6634 0.4459,4.3115 0,0 z m -664.56883,-5.433 c 3.0894,-2.9454 0.7827,3.5697 0,0 z m -1263.43116,-2.567 c 1.4434,-2.6634 0.4458,4.3115 0,0 z m 1471,0 c 1.4435,-2.6634 0.4459,4.3115 0,0 z m -1464.0789,-6.0391 c 5.3462,-3.4679 3.4793,4.5581 0,0 z m 1660.81249,-1.0607 c 4.3836,-1.4325 0.4335,1.9253 0,0 z m 499.2664,-1.9002 c 1.4434,-2.6634 0.4459,4.3115 0,0 z m -1290.26644,-0.1 c 4.38348,-1.4325 0.4334,1.9253 0,0 z m 249.69761,-0.3332 c 3.0894,-2.9454 0.7827,3.5697 0,0 z m -195.69761,-1.6668 c 4.38348,-1.4325 0.4334,1.9253 0,0 z m 778.26644,-2.9002 c 1.4434,-2.6634 0.4459,4.3115 0,0 z m -1617.07889,-7.3851 c -33.4028,-21.7098 31.6254,-12.5949 0,0 z m 1770.99999,-5.4244 c 3.9041,-3.2605 4.008,1.7751 0,0 z m -1257.00004,-7.607 c 2.55494,-3.5875 2.55494,3.5875 0,0 z m 609.50001,-4 c 3.5882,-3.8072 1.242,3.9423 0,0 z m -119.9357,-2.7069 c 1.0891,-2.5173 2.1558,4.4641 0,0 z m 1131.24823,0.024 c 4.3835,-1.4325 0.4334,1.9253 0,0 z m -239.8125,-3.3761 c 2.8802,-1.9056 2.3337,3.4347 0,0 z m -1204.18754,-6.6241 c 4.38348,-1.4325 0.4334,1.9253 0,0 z m 142.1875,-0.8169 c 0.86541,-5.2821 2.37355,5.247 0,0 z m 390.81251,0.8169 c 4.3836,-1.4325 0.4335,1.9253 0,0 z m 97.7302,-6.2478 c -1.1237,-3.8604 3.8772,0.6284 0,0 z m -184.5427,-0.4621 c 0.4558,-2.6853 5.9133,0.8965 0,0 z m 178.6557,-1.1522 c 2.6369,-3.8863 1.1596,3.4493 0,0 z m 8.3443,-4.9548 c 0.971,-5.582 3.8314,5.4632 0,0 z m 98.50003,0.5 c 1.2094,-3.6561 2.4663,3.5623 0,0 z m -103.48743,-0.971 c 0.8375,-2.796 6.7131,2.8417 0,0 z m -929.20011,-0.7121 c 4.38348,-1.4325 0.4334,1.9253 0,0 z m 1064.26644,-0.9002 c 1.4435,-2.6634 0.4459,4.3115 0,0 z m -985.57894,-5.4167 c 1.20936,-3.6562 2.46629,3.5623 0,0 z m -51.5,-1 c 2.55494,-3.5875 2.55494,3.5875 0,0 z m 1485.50004,0 c 1.2094,-3.6561 2.4663,3.5623 0,0 z m -1085.68754,-0.6831 c 4.38348,-1.4325 0.4334,1.9253 0,0 z m -23,-2 c 4.38348,-1.4325 0.4334,1.9253 0,0 z m 129.19711,-2.9272 c -20.7028,-16.4678 20.2295,-31.7573 18.3418,-11.3897 3.6839,8.7554 -13.5654,18.0339 -18.3418,11.3897 z m 659.80293,2.9272 c 4.3836,-1.4325 0.4335,1.9253 0,0 z m -1493.31249,-2.3169 c 2.4662,-3.5623 1.2093,3.6562 0,0 z m 1455.57889,-0.5833 c 1.4435,-2.6634 0.4459,4.3115 0,0 z m -1400.07889,-3.4757 c 2.8802,-1.9056 2.3337,3.4347 0,0 z m 963.99996,-1.441 c 0.8654,-5.2821 2.3735,5.247 0,0 z m -253.92106,-1.0833 c 1.44328,-2.6634 0.44611,4.3115 0,0 z m 914.73359,0.9002 c 4.3835,-1.4325 0.4334,1.9253 0,0 z m -523.81253,-4.3169 c 2.555,-3.5875 2.555,3.5875 0,0 z m 615.00003,-5 c 2.5549,-3.5875 2.5549,3.5875 0,0 z m -1870.45919,-4.578 c -0.4927,-32.1671 26.6832,14.2353 0,0 z m 3.4592,-2.922 c 5.8878,-10.2452 -5.5985,7.194 0,0 z m 6,0.107 c -0.4558,-2.6853 -5.9133,0.8965 0,0 z m 1879.81249,-1.2901 c 4.3835,-1.4325 0.4334,1.9253 0,0 z m -826.92783,-0.9955 c -22.4471,-23.8326 33.4435,-24.9232 7.2004,-2.321 -1.7812,2.5235 -5.0576,0.5249 -7.2004,2.321 z m 8.1354,-9.7972 c -8.2091,-6.162 3.6349,6.64 0,0 z m -8.6585,-4.0242 c -0.8654,-5.2821 -2.3735,5.247 0,0 z m 3.3007,-2.75 c -1.7503,0.9994 1.6231,5.5068 0,0 z m 4.0669,2.6458 c -3.9599,-2.1015 -0.9344,2.2534 0,0 z m 135.2708,11.6632 c 0.1169,-4.3267 3.05,0.9096 0,0 z m -1133.99996,-3.941 c 1.6501,-4.6687 3.4705,1.724 0,0 z m -12.6754,-0.776 c -2.305,-6.8471 4.3476,0.8571 0,0 z m 4.342,-0.01 c 10.0034,-15.4919 2.4861,3.6209 0,0 z m 901.33336,0.2904 c 3.3792,-4.0567 4.7285,-2.7618 0,0 z m 435.45894,-0.6889 c -2.1568,-3.5438 2.8169,0.03 0,0 z m 66.35359,0.3834 c 4.3836,-1.4325 0.4335,1.9253 0,0 z m 54.1875,-2.2579 c 0.1169,-4.3267 3.05,0.9096 0,0 z m -1470.43369,-0.9568 c -4.0942,-4.9712 8.957,3.779 0,0 z m 466.40621,-1.6353 c -19.43574,-26.1323 38.18209,-20.9583 4.84851,-0.511 l -4.84849,0.511 -2e-5,0 z m -463.45681,-0.4415 c 3.4684,-5.0542 2.9021,3.3203 0,0 z m 24.8309,-1.8078 c -7.8378,-9.6617 7.211,4.1379 0,0 z m -29.4618,0.1157 c -3.5948,-13.0379 7.264,-5.075 0,0 z m 19.7535,-1.8333 c 3.4844,-5.4232 0.6281,5.5091 0,0 z m 266.86165,-0.5 c 1.20936,-3.6562 2.46629,3.5623 0,0 z m 838.00001,0 c 1.2094,-3.6561 2.4663,3.5623 0,0 z m -1116.41106,-1.8707 c 1.6475,-15.0393 4.0109,9.2274 0,0 z m 15.5463,-2.1293 c -9.8972,-17.5421 7.9699,13.1751 0,0 z m 6.3952,-0.45 c 1.3459,-6.3475 2.2626,4.6236 0,0 z m 801.78205,0.7669 c 4.38348,-1.4325 0.4334,1.9253 0,0 z m -814.61755,-2.8169 c 1.0899,-4.7492 0.5865,6.0234 0,0 z m 1005.61756,1.8169 c 4.3835,-1.4325 0.4334,1.9253 0,0 z m -1020.20196,-4.7443 c 6.9782,-3.898 0.6485,4.2129 0,0 z m 28.1395,0.7651 c 5.5068,-1.6231 0.9994,1.7503 0,0 z m 1304.75,-2.3377 c 1.242,-3.9423 3.5882,3.8072 0,0 z m -1320.5,-1 c 3.9031,-3.6531 3.9031,3.6531 0,0 z m -10,-0.9336 c -8.3594,-4.5683 6.9133,1.448 0,0 z m 1542.25669,-0.066 c 4.3697,-5.8209 2.2623,2.3528 0,0 z m -1531.22489,-2.628 c 10.9311,-11.1645 8.7613,1.5534 0,0 z m 10.9682,0.5686 c 2.8802,-1.9056 2.3337,3.4347 0,0 z m 2071.81249,0.3759 c 4.3835,-1.4325 0.4334,1.9253 0,0 z m -2089.51229,-1.7361 c 12.1051,-4.8184 2.8471,3.0073 0,0 z m 416.69975,-5.4738 c 0.3123,-4.2758 5.30381,1.7943 0,0 z m 671.50001,-0.107 c 2.555,-3.5875 2.555,3.5875 0,0 z m -25.5,-0.893 c 0.3123,-4.2758 5.3039,1.7943 0,0 z m -8.6689,-1.814 c -13.6014,-23.1834 27.6979,0.8558 0,0 z m -1143.51856,0.024 c 4.3834,-1.4325 0.4334,1.9253 0,0 z m 1518.82589,-0.817 c 0.8654,-5.2821 2.3735,5.247 0,0 z m -351.63843,-2.7897 c 20.7117,-5.0666 -15.9371,-14.0648 14.25,-9.5769 9.2665,9.0248 -8.1601,14.6557 -14.25,9.5769 z m 12.3019,-5.3659 c -5.7284,-0.7235 -2.9729,8.1934 0,0 z m 988.51063,4.9725 c 4.3835,-1.4325 0.4334,1.9253 0,0 z m -548.3125,-1.3169 c 1.2094,-3.6561 2.4663,3.5623 0,0 z m -453.90223,-0.7356 c -1.5755,-5.3162 7.6832,0.4521 0,0 z m 121.6342,-5.2644 c 0.8042,-6.2584 0.8042,6.2584 0,0 z m 161.53594,-9 c -21.1204,0.6596 15.98289,-17.2628 3.1969,-23.9343 9.89519,6.7332 10.45209,22.3096 -3.1969,23.9343 z m -1.9018,-12.8691 c -3.8215,2.6221 -1.5843,5.6222 0,0 z m -2.9635,-0.5616 c -4.2914,3.4883 -2.8209,5.4478 0,0 z m 10.0974,1.7018 c -3.7648,-5.3925 -3.527,3.0815 0,0 z m -6,-3.6893 c 3.3447,-7.2206 -5.4742,0.9621 0,0 z m -996.00005,14.7269 c -2.33804,-28.8433 23.11328,6.3829 4.00033,-10.3283 -17.6633,-2.9426 12.72827,14.6457 -4.00033,10.3283 z m 10.55764,-0.2154 c 3.59768,-1.6485 3.87621,2.8449 0,0 z m -3.55764,-2.0933 c 2.46629,-3.5623 1.20936,3.6562 0,0 z m 274.8125,-0.6831 c 4.38348,-1.4325 0.4334,1.9253 0,0 z m 295.18751,-1.3169 c 2.4662,-3.5623 1.2094,3.6561 0,0 z m 242.0789,-1.5833 c 1.4435,-2.6634 0.4459,4.3115 0,0 z m 48.4282,0.5948 c 1.5044,-2.1395 2.5714,3.8903 0,0 z m -806.00711,-1.0115 c 1.24187,-3.9424 3.58829,3.8072 0,0 z m 1245.31254,-2.6831 c 4.3835,-1.4325 0.4334,1.9253 0,0 z M 4.28186,-1558.093 c -8.41974,-5.4356 11.49565,1.7594 0,0 z m 511.20891,-0.3608 c -2.1568,-3.5438 2.8169,0.03 0,0 z m -531.37996,-4.5168 c 1.44328,-2.6634 0.44611,4.3115 0,0 z m 275.73355,0.9002 c 4.38348,-1.4325 0.4334,1.9253 0,0 z m 262.91871,-1.3971 c 2.3469,-4.1977 0.2007,4.5447 0,0 z m 440.34774,-4.5031 c 1.4435,-2.6634 0.4459,4.3115 0,0 z M 54.389,-1568.8873 c 5.18829,-5.8583 -0.45951,5.8999 0,0 z m 4.14286,-0.5 c 2.46629,-3.5623 1.20936,3.6562 0,0 z m 454.00001,0 c 2.4662,-3.5623 1.2094,3.6561 0,0 z m -449.68751,-0.6831 c 4.38348,-1.4325 0.4334,1.9253 0,0 z m 995.68754,-0.3169 c 1.2094,-3.6561 2.4663,3.5623 0,0 z m 71.0427,-1.9309 c -1.1237,-3.8604 3.8772,0.6284 0,0 z m -1312.83716,-2.8419 c -2.99073,-11.2098 6.40699,6.2359 0,0 z m 1813.10696,1.0897 c 4.3835,-1.4325 0.4334,1.9253 0,0 z m -1091.11563,-2.71 c -2.7891,-6.4829 3.7021,1.5587 0,0 z m -718.37547,-1.8569 c -11.95864,-14.3325 10.26885,-0.2502 0,0 z m 6.22127,-1.6809 c -1.1237,-3.8604 3.87718,0.6284 0,0 z m 1084.6092,0.2002 c -22.3392,-35.0224 34.3919,-4.2187 0,0 z m 6.4388,-8.0119 c -7.1664,2.2129 0.627,2.9681 0,0 z m -0.924,-2.7574 c -0.8826,-5.0889 -2.1104,3.6282 0,0 z m -671.66671,9.107 c 0.45577,-2.6853 5.91329,0.8965 0,0 z m -60.70421,-2.0713 c -24.36634,-25.2311 43.78098,-11.2449 0,0 z m 476.70422,0.4643 c 2.4662,-3.5623 1.2094,3.6561 0,0 z m 476.07893,-0.5833 c 1.4435,-2.6634 0.4459,4.3115 0,0 z m -531.26643,-0.1 c 4.3835,-1.4325 0.4334,1.9253 0,0 z m -784.20552,-1.8987 c 0.21039,-4.2647 11.23119,0.7074 0,0 z m 542.89301,-0.418 c 2.46629,-3.5623 1.20936,3.6562 0,0 z m 435.50001,-1 c 2.5549,-3.5875 2.5551,3.5875 0,0 z m -261,-1.059 c 2.8802,-1.9057 2.3337,3.4348 0,0 z m -168.55888,-2.4092 c -4.31631,-5.147 10.43473,4.1578 0,0 z m 350.05888,-4.5318 c 2.4663,-3.5623 1.2094,3.6561 0,0 z m 24.1362,-4.5057 c -0.4393,-4.9548 3.561,4.178 0,0 z m -936.63621,-0.5533 c 2.8802,-1.9056 2.33371,3.4347 0,0 z m 1296.50004,-0.941 c 1.2094,-3.6562 2.4663,3.5623 0,0 z m 619.5,0 c 2.4663,-3.5623 1.2094,3.6561 0,0 z m -692.5,-1 c 1.2094,-3.6562 2.4663,3.5623 0,0 z m -1232.48473,-1.75 c -11.28262,-6.8316 19.60642,-11.1709 10.09168,-18.25 33.43051,-19.5899 18.06395,29.7091 -10.09168,18.25 z m -1.41531,-12.85 c -3.8889,-4.5989 1.53557,6.9306 0,0 z m 21.9,-9.4 c -4.91149,-3.7796 -7.0016,3.7034 0,0 z m 887.53781,16.9594 c -19.769,-4.2934 -20.1209,-26.9601 -10.2436,-24.9594 8.6286,-4.9006 32.2992,-14.2573 33.2144,10 0.2925,14.6091 -11.2384,17.2989 -22.9708,14.9594 z m -775.22531,0.3575 c 4.38348,-1.4325 0.4334,1.9253 0,0 z m 817.26641,-2.9002 c 1.4435,-2.6634 0.4459,4.3115 0,0 z m -766.52776,-2.3339 c -38.01427,-8.404 8.31483,-49.4425 17.35614,-14.1458 -10.30168,6.7416 -5.9808,16.3479 -17.35614,14.1458 z m 1756.26139,0.2341 c 4.3835,-1.4325 0.4334,1.9253 0,0 z m -1945.81254,-8.3759 c 2.8802,-1.9056 2.33371,3.4347 0,0 z m 971.00001,0.059 c -2.0263,-2.8277 4.3592,1.3719 0,0 z m 673.07893,-0.5833 c 1.4434,-2.6634 0.4459,4.3115 0,0 z m -1639.90226,-2.0595 c 10.01723,-12.255 0.46992,7.3693 0,0 z m 405.57332,-5.0195 c 5.50682,-1.6231 0.99942,1.7503 0,0 z m -5.75,-1.3377 c 2.46629,-3.5623 1.20936,3.6561 0,0 z m 300.22891,-0.1868 c 5.4151,-4.6997 1.6892,2.6979 0,0 z m -688.22891,-0.6205 c 15.15513,-2.0099 2.68725,2.6252 0,0 z m 1013.08541,-1.1399 c -47.6131,-8.0008 24.8775,-39.8478 6.7123,-0.5767 l -3.5234,0.3774 -3.1889,0.1996 0,-3e-4 z m -1322.35416,-3.9726 c 0.2008,-4.5448 2.3468,4.1977 0,0 z m 999.08126,0.2367 c 4.3835,-1.4325 0.4334,1.9253 0,0 z m -1.1458,-3.9836 c -1.8634,-6.5091 6.2881,0.6349 0,0 z m -182.85421,-1.0164 c 4.38348,-1.4325 0.4334,1.9253 0,0 z m 195.00001,0 c 4.3835,-1.4325 0.4334,1.9253 0,0 z m -48.00001,-2 c 4.38348,-1.4325 0.4334,1.9253 0,0 z m 45.43751,-0.8127 c -5.0218,-6.2296 8.4158,4.1512 0,0 z m 759.82893,-0.088 c 1.4434,-2.6634 0.4459,4.3115 0,0 z m 4.8177,-0.6662 c 4.6746,-9.113 0.6043,6.1073 0,0 z m -1293.66464,-1.75 c 0.80425,-6.2584 0.80425,6.2584 0,0 z m 4.77857,-1.4873 c -3.98816,-9.3755 7.93802,4.6348 0,0 z m 496.80194,0.8042 c 4.3835,-1.4325 0.4334,1.9253 0,0 z m 801.43093,-1.547 c -8.135,-8.6095 6.4723,-1.2688 0,0 z m -1309.16449,-3.3532 c 1.44328,-2.6634 0.44611,4.3114 0,0 z m 1301.52809,0 c -3.6354,-8.1255 6.8857,4.5673 0,0 z m 9.4719,-2.133 c 4.6644,-5.8889 5.0621,-0.9018 0,0 z m -16,-1.8685 c 1.4434,-2.6634 0.4459,4.3115 0,0 z m 44,-1 c 1.4434,-2.6634 0.4459,4.3115 0,0 z m -35.8174,-0.5552 c 3.2366,-18.5138 0.2641,-1.9758 0,0 z m 17.8174,-4.4448 c 1.4434,-2.6634 0.4459,4.3115 0,0 z m 440.7336,-2.0998 c 4.3835,-1.4325 0.4334,1.9253 0,0 z m -1000.78143,-2.2587 c -25.0754,-9.1004 -8.3897,-43.1259 12.8939,-26.8085 13.3665,14.8685 -4.8157,22.9646 -12.8939,26.8085 z m 0.9689,-29.4977 c -2.3337,-3.4348 -2.8802,1.9056 0,0 z m 322.81253,28.7579 c 4.3836,-1.4325 0.4335,1.9253 0,0 z m 2.9208,-2.441 c 3.7101,-3.3473 0.7538,2.2763 0,0 z m -1242.25193,-7.7377 c -15.40655,-3.7755 7.56595,-9.8461 0,0 z m -10.55572,-0.3882 c -5.09803,-9.2242 7.45367,0.1537 0,0 z m -0.23108,-6.3887 c 0.80527,-5.9574 8.22837,-0.9719 0,0 z m 13.8481,-1.2922 c -1.1237,-3.8604 3.87718,0.6283 0,0 z m -8.54271,-4.0691 c 0.36838,-3.1345 5.72516,2.4251 0,0 z m -4.1875,-1.6831 c 4.38348,-1.4325 0.4334,1.9253 0,0 z m 158.82587,-0.8169 c -2.56431,-15.4505 17.78627,0.9555 0,0 l 0,0 z m 222.86163,-4.5 c 1.20936,-3.6562 2.46629,3.5623 0,0 z m -17.5,-3 c -0.62976,-3.064 5.03889,2.0265 0,0 z m 26,-2.1486 c -22.41299,1.4341 -26.39967,-41.412 -1.6371,-34.3452 23.94787,-16.3835 35.98255,28.3112 12.71605,31.7467 -1.74777,-2.6593 -6.5564,6.7834 -11.07895,2.5985 z m 390.50001,-3.2986 c -26.6099,-17.1906 33.0413,-14.1884 0,0 z m 1.5,-8.5528 c -2.5632,-3.7039 -3.8442,3.5852 0,0 z m -105,7.5 c 2.3735,-5.247 0.8654,5.2821 0,0 z m 1013.00003,0.5 c 2.4663,-3.5623 1.2093,3.6561 0,0 z m -1542.00004,-1 c 2.56315,-3.7039 3.84426,3.5852 0,0 z m 212,-1.5 c 2.37355,-5.247 0.8654,5.2821 0,0 z m 304.22511,-1.1708 c -7.60211,-29.843 29.999,3.0012 0,0 z m 58.4671,-4.6889 c -22.7055,-2.5789 -44.7807,-24.3597 -25.0968,-42.1454 23.0812,-20.8185 67.3007,8.5903 50.1632,29.5051 -10.8984,9.6612 -9.044,10.3888 -25.0664,12.6403 z m -3.963,-47.2445 c -3.9599,-2.1015 -0.9344,2.2534 0,0 z m 953.77083,47.6042 c 2.4663,-3.5623 1.2093,3.6561 0,0 z m -1166.78249,-4.6835 c 0.36375,-15.1995 4.82006,2.4536 0,0 z m -296.96755,-0.9788 c 5.50682,-1.6231 0.99942,1.7503 0,0 z m 831.25001,-0.4543 c -31.9648,-26.8795 41.2075,-18.3252 0,0 l 0,0 z m -672.72506,-2.8834 c 2.75616,-7.0599 2.53438,7.0818 0,0 z m 834.72509,1 c 2.4663,-3.5623 1.2094,3.6561 0,0 z m -835.00004,-13.125 c 6.58748,-3.2452 6.58748,3.2452 0,0 z m 1165.50004,-3.875 c 1.2093,-3.6562 2.4663,3.5623 0,0 z m 69.1579,-1.4491 c 0.8224,-3.2649 4.9331,3.686 0,0 z m -1628.84544,-5.234 c 4.38348,-1.4325 0.4334,1.9253 0,0 z m 297.1875,-3.3169 c 2.46629,-3.5623 1.20936,3.6561 0,0 z m 727.50001,-5.0057 c -23.7602,-9.8705 0.7736,-48.2115 18.9184,-27.9939 15.6408,13.1796 -1.8727,35.493 -18.9184,27.9939 z m -334.9573,-1.9252 c -1.1237,-3.8604 3.87718,0.6283 0,0 z m -0.82792,-3.6876 c -42.28323,-18.2293 31.09802,-23.9698 0,0 z m 1143.28525,-3.4885 c -24.0355,1.451 -26.9823,-23.7552 -11.9756,-34.4083 5.9166,-7.6036 30.4019,2.2659 27.0154,19.0631 -2.6703,1.2848 -9.3963,15.5301 -15.0398,15.3452 z m -19.5,-2.893 c 2.4663,-3.5623 1.2093,3.6561 0,0 z m -290.4211,-4.5833 c 1.4434,-2.6634 0.4459,4.3115 0,0 z m -1238.07894,-1.3577 c 0.11704,-4.3267 3.04983,0.9095 0,0 z m 1161.60874,-1.8831 c -1.0561,-4.5423 3.7666,1.2706 0,0 z m 63.8913,-2.1759 c 2.4663,-3.5623 1.2093,3.6561 0,0 z m -1626.02699,-3.0437 c 3.5416,-3.2609 5.5398,1.7332 0,0 z m 780.68484,-1.9563 c 0.87512,-4.5074 0.87512,4.5074 0,0 z m 383.92102,-3.5833 c 1.4435,-2.6634 0.4459,4.3115 0,0 z m 228.42113,-1.4167 c 2.4663,-3.5623 1.2094,3.6561 0,0 z m 10.5,-1.393 c 0.4558,-2.6853 5.9133,0.8965 0,0 z m -1438.99999,-2.3179 c 3.7687,-6.7708 2.723,0.114 0,0 z m 1172.99996,-3.2891 c 2.4663,-3.5623 1.2094,3.6561 0,0 z m -1326.42516,-2.8789 c -0.5303,-3.3461 6.369,-0.078 0,0 z m 1327.42516,-0.014 c 0.9393,-4.8687 4.0441,1.7543 0,0 z m 5.8125,-0.7901 c 4.3836,-1.4325 0.4335,1.9253 0,0 z m -1186.73356,-5.9002 c 1.4433,-2.6634 0.4461,4.3114 0,0 z m 1438.92109,0.083 c -1.6081,-5.5779 6.2458,5.8401 0,0 z m -1348.45729,-3.4307 c -1.1237,-3.8604 3.8771,0.6283 0,0 z m 10.4573,-0.1281 c 2.8802,-1.9056 2.3337,3.4347 0,0 z m -6,-1.941 c -21.9472,0.1077 -1.9935,-38.3229 11.3775,-22.0003 17.316,10.6589 1.1557,22.7266 -11.3775,22.0003 z m 12,-7.3776 c -3.3794,-4.0568 -4.7284,-2.7618 0,0 z m -12,-11.0634 c -2.3338,-3.4348 -2.8802,1.9056 0,0 z m 703.99995,13.548 c 0.93943,-4.8687 4.04402,1.7543 0,0 z m 378.00001,-1.107 c 4.9116,-3.7796 7.0015,3.7034 0,0 z m 10,-1.0314 c 3.9042,-3.2605 4.008,1.7751 0,0 z m -5.4357,-2.6755 c 1.0891,-2.5173 2.1558,4.4641 0,0 z m -1129.56426,-3.3867 c 5.2764,-3.08 5.2878,1.7161 0,0 z m 855.55386,-1.0427 c -15.3348,-39.023 38.8819,1.188 0,0 z m 8.1753,-8.4679 c -3.9599,-2.1015 -0.9344,2.2534 0,0 z m -488.72921,-0.8368 c 1.89761,-5.0354 3.10608,3.6266 0,0 z m 499.50001,-0.559 c 2.4662,-3.5623 1.2094,3.6561 0,0 z m 682.50003,-2.059 c 2.8802,-1.9056 2.3337,3.4347 0,0 z m -1170.53278,-0.994 c 0.77083,-3.5242 8.1869,1.769 0,0 z m -11.02111,-3.0341 c -0.2351,-6.7508 3.94414,3.9426 0,0 z m 23.6328,-0.4962 c 1.44328,-2.6634 0.44611,4.3114 0,0 z m 1569.92099,-1.3853 c 4.0081,-1.7751 3.9042,3.2605 0,0 z m -2043.49989,-4.5108 c -33.6061,-30.3027 47.0527,-16.109 0,0 z m 448.49995,1.4794 c 2.55494,-3.5875 2.55494,3.5874 0,0 z m 1589.50004,0 c 2.4663,-3.5623 1.2093,3.6561 0,0 z m -1575.3568,-0.8903 c -2.27824,-5.1239 9.05506,4.5406 0,0 z m -7.93267,-1.7147 c -2.44513,-4.722 6.30243,3.8398 0,0 z m 2.78943,-2.395 c 3.90318,-3.6531 3.90318,3.6531 0,0 z m 5.02006,-2.5242 c 4.70567,-4.5855 -1.87302,5.0918 0,0 z m 463.47995,0.5638 c -22.0072,-26.2567 34.0723,-3.0529 0,0 z m -453.8182,-1.6528 c 4.54343,-4.6127 3.92405,3.4965 0,0 z m -22.93181,-0.7788 c -6.56892,-7.9276 7.57879,4.7761 0,0 z m 10.32389,-0.019 c 0.32739,-5.9936 9.03132,2.207 0,0 z m 779.95692,-3.3505 c -35.4713,-1.7625 -12.3237,-64.6661 11.9692,-32.8059 9.8019,9.7341 1.7202,32.9599 -11.9692,32.8059 z m -788.53081,-1.3768 c -3.58217,-5.5037 14.65755,7.8407 0,0 z m 8.64324,-0.7687 c -2.32021,-4.143 4.88923,1.3935 0,0 z m 3.85676,0.514 c 3.90415,-3.2605 4.00797,1.7751 0,0 z m 534.81251,-2.2901 c 4.3835,-1.4325 0.4334,1.9253 0,0 z m 71.4388,-2.0669 c -10.7919,-38.8854 32.2146,2.6213 0,0 z m 4.4779,-4.8542 c -3.9599,-2.1015 -0.9344,2.2534 0,0 z m -487.33808,5.428 c -28.8729,-13.5305 22.12763,-40.7409 19.23659,-8.5294 -4.35774,7.2234 -10.10702,10.1492 -19.23659,8.5294 z m 1138.42141,-8.5069 c 4.3835,-1.4325 0.4334,1.9253 0,0 z m 68.0155,-3.8221 c -30.733,-5.0702 -3.7864,-52.3163 18.2203,-30.0531 10.0708,8.4516 2.053,33.2909 -18.2203,30.0531 z m 269.1412,-2.5524 c -3.043,-8.0503 6.5278,5.7551 0,0 z m 4.5804,-2.7654 c 1.3184,-13.1355 5.8771,1.3377 0,0 z m -945.04963,-0.177 c 3.8442,-3.5852 2.5632,3.7039 0,0 z m -415.68751,-0.6831 c 4.38348,-1.4325 0.4334,1.9253 0,0 z m 1345.18754,-2.2579 c 0.1169,-4.3267 3.0499,0.9096 0,0 z m 10.3432,-0.607 c 2.9778,-8.8486 6.4317,0.9904 0,0 z m -1720.34324,-0.452 c 2.46629,-3.5623 1.20936,3.6561 0,0 z m 780.81251,-0.6831 c 4.3836,-1.4325 0.4335,1.9253 0,0 z m 930.18753,-5.3169 c 2.4663,-3.5623 1.2093,3.6561 0,0 z m 12,0 c 2.4663,-3.5623 1.2093,3.6561 0,0 z m -1319.00004,-1 c 6.39134,-2.3521 -0.7298,3.3054 0,0 z m 1314.81254,0.3169 c 4.3835,-1.4325 0.4334,1.9253 0,0 z m -1366.72921,-5.5999 c 4.27935,-4.6908 4.7542,-0.796 0,0 z m 53.99562,-2.3003 c 1.44328,-2.6634 0.44611,4.3114 0,0 z m -56.82895,-0.6813 c -13.81961,-12.5183 15.96662,-12.4754 0,0 z m 5.82895,-1.9854 c 3.0776,-5.6128 5.16537,3.0631 0,0 z m 538.92106,0.191 c 6.3088,-6.6993 -0.2065,2.645 0,0 z m -289.1875,-0.6241 c 4.3835,-1.4325 0.4334,1.9253 0,0 z m 286,0 c 4.3836,-1.4325 0.4335,1.9253 0,0 z m -533.81251,-4.2579 c 1.71404,-8.1626 3.74444,7.0109 0,0 z m 28,0.941 c 2.55494,-3.5875 2.55494,3.5874 0,0 z m -75.5401,-2.0649 c 1.53094,-20.9437 3.74261,2.7225 0,0 z m 88.3526,0.3818 c 4.38348,-1.4325 0.4334,1.9253 0,0 z m 194.18751,-0.2579 c 0.1168,-4.3267 3.05,0.9096 0,0 z m -459.84212,-2.059 c 0.87512,-4.5074 0.87512,4.5074 0,0 z m 187.3663,1.0391 c 1.50013,-8.2 6.03208,-2.0879 0,0 z m 62.47581,-0.039 c 2.55494,-3.5875 2.55494,3.5874 0,0 z m 9.23015,-0.9189 c 15.45769,-9.0091 4.22951,0.074 0,0 z m -526.99808,-2.0811 c 0.42941,-7.2945 5.08105,7.0091 0,0 z m 517.96288,-2.5 c 1.08991,-4.7492 0.58645,6.0234 0,0 z m 632.6176,1.8169 c 4.3836,-1.4325 0.4335,1.9253 0,0 z m -796.81255,-1.3759 c 2.8802,-1.9056 2.33371,3.4347 0,0 z m 153.86315,0.2562 c 0.57387,-4.9537 -0.23253,2.5614 0,0 z m 637.13686,-0.7562 c -16.0024,-10.1434 11.75424,1.0138 0,0 z m -631.64287,-0.941 c 4.41208,-5.5743 1.13466,5.7178 0,0 z m 45.45536,-0.1831 c 4.38348,-1.4325 0.4334,1.9253 0,0 z m -111.92296,-2.2603 c -0.0144,-10.673 9.49567,3.5633 0,0 z m 78.61046,0.9434 c 1.20936,-3.6562 2.46629,3.5623 0,0 z m 629.50005,-0.059 c 2.8802,-1.9056 2.3337,3.4347 0,0 z m -647.00005,-0.941 c 6.01796,-3.4248 1.61226,4.2168 0,0 z m -393.5,-1 c 2.55494,-3.5875 2.55494,3.5874 0,0 z m 1043.50005,0 c 2.4663,-3.5623 1.2094,3.6561 0,0 z m -1.9211,-1.5833 c 1.4435,-2.6634 0.4459,4.3115 0,0 z m -651.57895,-0.4167 c 1.24187,-3.9424 3.58829,3.8072 0,0 z m 22.66615,0.1239 c -1.39855,-3.6446 4.98548,0.798 0,0 z m 616.83386,-0.065 c 0.1169,-4.3267 3.05004,0.9096 0,0 z m -630.00001,-1.6362 c -9.21365,-4.6414 11.65442,3.3789 0,0 z m 624.00001,0.1328 c -107.3728,-6.42 30.26484,-6.5477 0,0 l 0,0 z m -428.5,-0.5556 c 1.2094,-3.6562 2.4662,3.5623 0,0 z m 440.50004,0 c 2.4663,-3.5623 1.2094,3.6561 0,0 z m -644.29579,-2.0229 c 0.50378,-14.2699 4.33766,2.6565 0,0 z m -52.06589,-0.4771 c 0.8654,-5.2821 2.37355,5.247 0,0 z m 68.86163,0.5 c -2.10737,-2.9369 5.74603,1.6933 0,0 z m 190.93191,-1.1102 c 2.278,-4.3865 3.7663,3.7444 0,0 z m -195.93191,-0.8898 c 2.46629,-3.5623 1.20936,3.6561 0,0 z m -3.5,-1.059 c 2.8802,-1.9056 2.33371,3.4347 0,0 z m 630.03641,-0.3972 c -2.9683,-8.0733 11.28514,6.514 0,0 z m -428.0364,-0.5438 c 2.4662,-3.5623 1.2094,3.6561 0,0 z m -187.98034,-0.9878 c -1.25589,-4.6017 6.15936,2.5389 0,0 z m 184.05924,-0.5955 c 1.4434,-2.6634 0.4458,4.3115 0,0 z m -261.07891,-0.4757 c 2.8802,-1.9056 2.33371,3.4347 0,0 z m 699.83515,0.318 c -9.91964,-9.9778 6.9442,1.2739 0,0 z m 722.16489,-2.318 c -12.9142,-21.799 8.1622,4.7747 0,0 z m -1352.55389,-1.0281 c -1.70778,-4.9896 3.70161,-0.075 0,0 z m 281.14326,-1.4129 c -4.5236,-5.2979 -24.1703,-0.5754 -29.1031,-19.3793 -2.6904,-11.2514 43.6575,-30.9541 26.4578,-34.0384 -3.5708,-23.8605 44.7889,48.1137 24.5595,20.0946 -0.6594,18.7059 -10.2402,23.9916 -21.9142,33.3231 z m 3.9106,-6.5 c -5.4655,-3.6609 -3.7205,3.7552 0,0 z m -22.8169,-8.1875 c -1.9252,0.4337 1.4328,4.3834 0,0 z m -6.1831,-2.8125 c -2.7664,-3.9752 -2.0338,1.9287 0,0 z m -338.16318,17.5646 c -4.83967,-28.922 33.43398,6.7317 0,0 z m 8.0248,-4.0646 c -4.53953,-5.5676 1.43832,5.3978 0,0 z m 913.38841,3.8377 c 5.5068,-1.6231 0.9994,1.7503 0,0 z m -632.75003,-1.3377 c 2.5549,-3.5875 2.5549,3.5874 0,0 z m -256.00001,-1.441 c 1.89761,-5.0354 3.10608,3.6266 0,0 z m 241.11841,0.5142 c -1.3221,-3.3583 6.5848,-0.1273 0,0 z m -192.03946,-1.6565 c 1.44328,-2.6634 0.44611,4.3114 0,0 z m 203.39006,0.5331 c 1.5924,-4.005 2.9825,3.1776 0,0 z m 1136.73103,-1.1498 c -4.72,-5.9674 8.3656,1.6725 0,0 z m -1086.20003,-3.193 c 0.4557,-2.6853 5.9132,0.8965 0,0 z m 526.50003,-3.1493 c 3.6808,-4.7214 2.6005,5.9923 0,0 z m -840.50004,0.4833 c 2.8802,-1.9056 2.33371,3.4347 0,0 z m -771.88315,-0.8688 c -16.7108,-22.313 24.2345,-1.66 2.3354,0.1368 l -2.3354,-0.1368 0,0 z m 873.38315,-0.072 c 1.20936,-3.6562 2.46629,3.5623 0,0 z m -108.2675,-1.5 c -4.93339,-0.5381 -21.66175,-39.0933 -0.83872,-31.6713 -5.29132,18.2068 -10.58104,31.4825 -3.39415,21.2643 24.07722,-8.4022 4.94926,6.5212 12.51513,5.157 -8.84542,-6.1499 5.24985,10.1619 -8.28226,5.25 z m -7.2325,-21 c -4.91482,-5.7569 -0.71124,5.8746 0,0 z m 24,22.1224 c 3.64059,-5.1808 4.29647,2.0157 0,0 z m 831.45884,-3.6889 c -2.1567,-3.5438 2.8169,0.03 0,0 z m -46.8925,-1.8865 c -4.3867,-3.976 7.4191,2.4219 0,0 z m 35.9337,-0.047 c 2.4663,-3.5623 1.2093,3.6561 0,0 z m -731.25004,-1.6623 c -5.04041,-4.8527 9.79132,1.6842 0,0 z m 163.74161,-0.364 c -0.8408,-7.1808 7.0549,1.367 0,0 z m -1028.99156,-1.9737 c 2.5549,-3.5875 2.5549,3.5874 0,0 z m 1556.68739,-0.6458 c -1.6412,-7.221 7.4642,1.0074 0,0 z m 5.5625,-0.016 c -2.8718,-6.7905 4.52,2.9986 0,0 z m -14.7073,-1.2686 c -1.1237,-3.8604 3.8772,0.6284 0,0 z m -519.04263,-3.0696 c 1.2094,-3.6562 2.4662,3.5623 0,0 z m 396.5,-2 c 8.9616,-12.6359 7.2082,-9.1984 -9.7139,-5.75 -30.2346,-4.9164 9.2228,-41.7253 16.1915,-8.7044 8.7186,-1.7766 3.3308,21.9991 -6.4776,14.4544 z m 6,-13 c -2.5549,-3.5875 -2.5549,3.5874 0,0 z m -242.5,12 c 1.2094,-3.6562 2.4663,3.5623 0,0 z m 822.35583,-1.3091 c -19.6091,0.5072 -23.7628,-42.494 6.7275,-37.6876 14.1684,6.4613 25.7183,20.7624 11.3887,31.7175 -8.0582,7.4643 -9.7473,5.6474 -18.1162,5.9701 z m 8.6441,-5.6909 c 7.233,-12.9672 -2.1875,-4.2412 0,0 z m -6.8377,-3.25 c -1.7503,0.9994 1.6232,5.5068 0,0 z m -7.6623,-1.301 c -4.3732,0.9844 -2.248,5.2019 0,0 z m -4.5,-0.449 c -1.2093,-3.6562 -2.4663,3.5623 0,0 z m 12.2709,-1.1875 c -0.808,-5.0381 -4.4458,2.2077 0,0 z m -7.5876,-4.0292 c -3.904,-1.6157 3.3725,4.6018 0,0 z m 9.62,-0.7833 c -2.6536,-10.6873 -0.1261,10.1392 0,0 z m -12.6791,-4.2667 c -2.2763,0.7538 3.3471,3.7101 0,0 z m 12.6047,-2.2838 c -0.2222,-6.8564 -5.1974,4.5937 0,0 z m -4.0458,-2.637 c -1.9252,0.4337 1.4329,4.3834 0,0 z m 1.317,-2.8125 c -1.6123,-4.2168 -6.018,3.4247 0,0 z m 0,-5.941 c -1.5223,-4.7394 -2.5994,3.5805 0,0 z m -1251.00004,30.941 c -17.77559,-25.591 27.49366,-2.9744 3.96107,-1.0002 -1.13738,2.2383 4.01299,9.9055 -3.96107,1.0002 z m 4.83453,-7.8766 c 0.008,-4.5405 -7.36376,3.7528 0,0 z m 10.58821,8.2177 c 17.10054,-12.5221 -3.08285,7.8761 0,0 z m -3.91266,-0.3574 c 3.08944,-2.9454 0.78267,3.5697 0,0 z m 1224.98986,-0.9837 c -2.1073,-2.9369 5.746,1.6933 0,0 z m -558.49993,-1.5 c 2.3735,-5.247 0.8654,5.2821 0,0 z m -572.00001,-1.5159 c 2.89784,-11.6471 19.94957,6.7196 0,0 z m 263.07891,-1.5674 c 1.4434,-2.6634 0.4458,4.3115 0,0 z m -265.6873,-1.8386 c 19.93543,-10.5558 8.66353,-4.6742 0,0 z m 262.6084,-2.5781 c 2.4662,-3.5623 1.2094,3.6561 0,0 z m 864.71023,-1 c 0.3599,-7.0685 3.3463,7.047 0,0 z m -212.8978,-0.6831 c 4.3835,-1.4325 0.4334,1.9253 0,0 z m -1030.81244,-4.3483 c 3.90414,-3.2605 4.00797,1.7751 0,0 z m 291.50001,-7.9686 c 2.4662,-3.5623 1.2094,3.6561 0,0 z m -1025.49996,-14 c 2.5631,-3.7039 3.8442,3.5852 0,0 z m 439.08097,-3.8486 c -4.36835,-8.8549 5.59394,5.8805 0,0 z m 669.41899,-7.1514 c 2.5549,-3.5875 2.5549,3.5874 0,0 z m -381.68751,-0.6831 c 4.38339,-1.4324 0.43361,1.9251 0,0 z m -198.36522,-2.0656 c -34.60224,-30.5946 48.37331,-14.5251 4e-5,0 l -4e-5,0 z m 1212.36516,-0.9344 c 4.3834,-1.4324 0.4336,1.9251 0,0 z m -1383.26973,-3.2478 c -1.1237,-3.8604 3.87718,0.6283 0,0 z m 232.53624,-6.6524 c 1.44327,-2.6634 0.44611,4.3114 0,0 z m 238.60237,-2.0639 c -6.96357,-31.8026 32.61672,6.2504 0,0 z m 49.31868,0.2062 c 1.89761,-5.0354 3.10608,3.6266 0,0 z m -118,-6.3365 c -16.4324,-29.4842 34.78748,-8.8621 1.50245,-0.7814 l -1.50245,0.7814 0,0 z m 3.55902,-5.9293 c -0.9403,-9.5059 -6.85049,6.725 0,0 z m 6.44098,-1.2932 c -15.23926,-7.1948 3.84005,6.1817 0,0 z m 386.00001,4 c 2.5549,-3.5875 2.5549,3.5874 0,0 z m 982.49993,0 c 1.2094,-3.6562 2.4663,3.5623 0,0 z m -1074.90213,-0.7356 c -20.3079,-25.0291 35.6986,-19.6236 7.8774,-2.5159 l -5.06,0.8912 -2.8174,1.6247 0,0 z m 4.9022,-6.2644 c -2.7664,-3.9752 -2.0338,1.9287 0,0 z m 5.4686,-3.75 c -6.9859,-12.2141 -1.2388,7.9518 0,0 z m -121.88966,7.1667 c 1.44328,-2.6634 0.44611,4.3114 0,0 z m 1239.92099,0.7833 c 9.4845,-9.2825 3.8971,1.9628 0,0 z m -1931.41876,-3.0687 c -27.59763,-19.4714 17.49879,-11.6463 0,0 l 0,0 z m -4.58118,-7.5723 c -2.33371,-3.4348 -2.8802,1.9056 0,0 z m 1932.44234,5.8145 c -11.5313,-14.9097 8.162,6.167 0,0 z m 10.5576,-0.3985 c 7.9872,-10.2248 11.8007,9.0454 0,0 z m -1553.99994,0.9117 c -30.86817,-14.9754 12.4664,-35.9318 14.5,-14.8867 7.75966,2.6912 -8.02762,17.9457 -14.5,14.8867 z m 623.21761,-1.078 c -27.0096,-17.338 14.964,-42.0923 21.0324,-19.9062 5.9507,13.2663 -9.2098,22.5646 -21.0324,19.9062 z m -822.96761,-0.471 c -3.25021,-4.9765 6.87978,1.3455 0,0 z m -357.09215,-4.3377 c 0.8752,-4.5074 0.8752,4.5074 0,0 z m 2091.65459,1.3169 c 4.3834,-1.4324 0.4336,1.9251 0,0 z m 26.2304,-0.2904 c -12.8713,-2.317 13.8312,-7.199 0,0 z m -14.0429,-1.0265 c -3.6636,-6.7614 -18.4775,10.5557 -17.0069,-3.6164 7.3593,-30.8384 18.058,8.1574 19.2089,4.3913 l -2.202,-0.7751 0,2e-4 z m -1533.99994,-1.059 c 2.8802,-1.9056 2.33371,3.4347 0,0 z m 66.01531,-0.132 c 0.33362,-6.8028 2.7677,1.9117 0,0 z m 449.9847,0.1596 c 3.9042,-3.2606 4.008,1.7751 0,0 z m 1024.54103,0.098 c -5.5668,-16.0213 4.8523,-13.1075 0,0 z m -26.5411,-1.0665 c 2.4663,-3.5623 1.2094,3.6561 0,0 z m -1728.99994,-1.059 c 3.70002,-3.8134 3.00543,3.1739 0,0 z m 1761.99994,-1.941 c 2.5549,-3.5875 2.5549,3.5874 0,0 z m -41,-0.9648 c 7.5815,-9.0623 5.4702,6.3901 0,0 z m -2056.60059,-1.8634 c 8.0123,-3.3386 -3.835,4.8816 0,0 z m 627.3655,0.8279 c -7.88214,-11.5065 9.88369,-3.28 0,0 z m 264.04766,0.3169 c 4.3834,-1.4324 0.4336,1.9251 0,0 z m 1161.43123,-0.9813 c -6.2178,-7.1482 9.7413,-2.3616 0,0 z m -1391.74374,-3.1463 c 6.36327,-5.2651 5.47721,2.7375 0,0 z m 1417.49994,-3.7483 c 3.1061,-3.6267 1.8976,5.0354 0,0 z m -2099.99989,-0.441 c -2.0265,-2.8277 4.3591,1.3719 0,0 z m 678.33328,-0.4823 c 6.82124,-18.1415 19.35458,-0.9609 0,0 z m 11.66667,-0.077 c 3.10608,-3.6267 1.89761,5.0354 0,0 z m -659.99995,-1.6077 c 3.9233,-3.0622 3.9229,3.0623 0,0 z m 64.5063,-0.4523 c -20.324,-11.5794 28.4841,-11.6265 0,1e-4 l 0,-1e-4 z m 4.4783,-5.6704 c -2.7511,-0.55 -3.2511,7.2862 0,0 z m 1980.75729,6.6298 c -1.3926,-18.1968 5.9745,1.1202 0,0 z m 11.0034,-3.9284 c -2.076,-13.2528 4.3732,-1.6678 0,0 z m -1172.20263,-2.3429 c -1.2021,-3.5602 3.0812,0.4254 0,0 z m 189.0102,-11.4633 c -5.1795,-56.679 44.2224,14.2546 0,0 z m 11.1302,-9.7933 c -1.9252,0.4337 1.4328,4.3834 0,0 z m -73.6831,3.0709 c -33.9757,-10.9333 28.2595,-30.3303 4.532,-0.2327 l -2.059,0.393 -2.473,-0.1603 0,0 z m -462.30659,-3.3656 c -26.67295,-20.2688 19.85032,-39.0455 28.942,-22.6179 3.32839,19.2255 -12.46088,23.8444 -28.942,22.6179 z m 138.04434,-1.2095 c -4.60184,-4.4377 6.71697,2.1707 0,0 z m 6.26224,-2.3083 c -3.69395,-4.552 6.03419,2.1664 0,0 z m -12.76095,-4.75 c 8.28447,-16.1168 0.16661,16.4667 0,0 z m 494.76096,2.9411 c -15.6484,0.8842 -24.3142,-28.0369 -2.2154,-33.5493 19.6757,-7.9913 26.8406,30.6099 2.2154,33.5493 z m 1.6831,-7.3786 c -1.9252,0.4337 1.4328,4.3834 0,0 z m -14,-2 c -1.9252,0.4337 1.4328,4.3834 0,0 z m -466.04694,4.6932 c 3.56103,-4.178 -0.4393,4.9548 0,0 z m -3.63617,-3.5057 c 2.46629,-3.5623 1.20936,3.6561 0,0 z m -9.28909,-1.4694 c 0.0288,-9.0055 15.43153,2.5149 0,0 z m -57.55302,-2.5306 c 0.87511,-4.5074 0.87511,4.5074 0,0 z m -284.91307,-5.1051 c -17.81037,-17.413 16.97118,-2.7808 0,0 z m 0.25518,-6.8949 c -3.58829,-3.8072 -1.24187,3.9423 0,0 z m 334.3125,5.3169 c 4.38339,-1.4324 0.43361,1.9251 0,0 z m -499.8125,-1.3169 c 2.46629,-3.5623 1.20936,3.6561 0,0 z m 599.83333,-1 c -18.99273,-11.2384 24.50557,-34.1145 17.60329,-5.6141 -3.10235,7.5139 -10.88728,7.6581 -17.60329,5.6141 z m -655.83333,-0.5 c 6.09877,-6.0653 4.03904,6.0392 0,0 z m 9.5691,0.3882 c -3.89919,-7.981 4.09789,3.0514 0,0 z m 32.76423,-0.1561 c -15.11265,-26.7842 9.30249,6.0929 0,0 z m 1595.16661,0.2679 c 2.4663,-3.5623 1.2094,3.6561 0,0 z m -1577.49994,-1 c 7.32839,-4.193 -2.47946,3.9386 0,0 z m -72.48995,-2.0163 c 3.0895,-2.9454 0.7827,3.5697 0,0 z m -1.51,-2.3767 c 3.9041,-3.2605 4.0079,1.7751 0,0 z m 13.99995,-1.2761 c 12.70117,-6.264 5.6484,3.0203 0,0 z m -7.99995,-2.3309 c 9.52187,-9.3975 0.4045,7.0631 0,0 z m -7.6181,-0.191 c -3.5804,2.2793 1.4798,-15.1407 0,0 z m 69.697,-2.3923 c 1.44328,-2.6634 0.44611,4.3114 0,0 z m -44.07895,-0.9167 c 2.37355,-5.247 0.86541,5.2821 0,0 z m 333.07895,-0.083 c 1.44327,-2.6634 0.44611,4.3114 0,0 z m -353.0789,-1.4167 c 3.8442,-3.5852 2.5631,3.7039 0,0 z m 3.7254,-2.0258 c -3.4363,-9.452 10.90273,7.1154 0,0 z m 21.27455,0.026 c 2.85329,-7.273 3.20248,7.1391 0,0 z m -277.99995,0 c -2.0265,-2.8277 4.3591,1.3719 0,0 z m 1319.81246,0.3169 c 4.3835,-1.4324 0.4337,1.9251 0,0 z m 327.18753,-1.3169 c 2.4662,-3.5623 1.2093,3.6561 0,0 z m -1396.18749,-0.6831 c 4.3833,-1.4324 0.4336,1.9251 0,0 z m 1390.22629,-2.4865 c -24.0413,-3.0067 1.5613,-49.3017 18.9572,-26.0304 7.5487,11.6721 -3.9351,31.0293 -18.9572,26.0304 z m -1647.03879,-0.8304 c 2.5549,-3.5875 2.5549,3.5874 0,0 z m 10,0 c 6.3913,-2.3521 -0.7298,3.3054 0,0 z m 256.5,0 c 1.20931,-3.6562 2.46624,3.5623 0,0 z m -271.2804,-2.6164 c 6.6839,-9.4015 2.4206,-4.0402 0,0 z m 10.2804,1.6164 c 2.5631,-3.7039 3.8442,3.5852 0,0 z m 266.49995,-0.5 c 5.56182,-3.4734 4.47474,4.9211 0,0 z m 1140.41801,-0.8531 c 0.5949,-13.8645 -12.8999,-10.8817 5.1496,-26.0587 18.5746,-9.4242 24.6272,32.4803 -0.5072,24.9489 0.3229,-10.943 -4.4381,-1.7977 -4.642,1.1098 l -4e-4,0 z m 14.1219,-6.0524 c 5.3687,-4.1382 -11.1969,3.5067 0,0 z m -10.5399,-1.0355 c -2.3337,-3.4348 -2.8802,1.9056 0,0 z m 5.5,-0.559 c -2.2965,-4.2421 -12.7974,-3.7069 0,0 z m 4.9912,-4.6417 c -3.1685,-22.6116 8.4868,-2.5884 0,-2e-4 l 0,2e-4 z m -4.9912,-3.3583 c -2.5549,-3.5875 -2.5549,3.5874 0,0 z m -580.42106,14.4167 c 1.44328,-2.6634 0.44611,4.3114 0,0 z m -839.0789,-0.9167 c 2.4793,-5.269 2.4793,5.269 0,0 z m 252,-0.559 c 2.8802,-1.9056 2.3337,3.4347 0,0 z m 3,0.5629 c 9.98684,-7.1253 10.2134,2.9644 0,0 z m 13.99995,-0.8372 c 3.03097,-5.3099 3.05979,3.3146 0,0 z m -257.54115,-0.7332 c -2.1567,-3.5438 2.8169,0.03 0,0 z m 1808.29119,-0.5958 c 5.5068,-1.6231 0.9994,1.7503 0,0 z m 6.8964,-1.4321 c -34.706,-9.4805 -0.1698,-62.3913 21.736,-38.9056 15.489,6.6033 1.7608,45.1442 -21.736,38.9056 z m 12.0828,-2.5098 c -3.9597,-2.1016 -0.9347,2.2533 0,0 z m -796.91673,1.9211 c 4.3834,-1.4324 0.4336,1.9251 0,0 z m -771.31251,-2.3169 c 2.46629,-3.5623 1.20936,3.6561 0,0 z m -269.49995,-0.3834 c 5.2766,-3.0801 5.2877,1.7163 0,0 z m 330.81245,-0.2997 c 4.38339,-1.4324 0.43361,1.9251 0,0 z m 1104.00001,-8 c 4.3835,-1.4324 0.4337,1.9251 0,0 z m -368.2296,-3.1827 c -2.3514,-4.9689 3.6565,1.4375 0,0 z m 283.606,0.1397 c -26.499,-35.2411 40.8676,-10.8089 0,0 z m -495.31389,-2.7739 c 4.86052,-13.0749 11.3901,-2.8158 0,0 z m 952.62502,0.5 c 2.4663,-3.5623 1.2094,3.6561 0,0 z m -944.95733,-1.9309 c -1.1237,-3.8604 3.87718,0.6283 0,0 z m -405.1382,-5.2236 c 2.76088,-4.4151 4.92383,0.5683 0,0 z m -4.40451,-0.8141 c -13.60504,-16.6092 8.2529,-9.5833 0,0 z m 934.18361,-2.7043 c 3.1161,-9.6211 6.853,9.9833 0,0 z m 387.56643,-14.9894 c 5.5068,-1.6231 0.9994,1.7503 0,0 z m 71.75,-1.3377 c 2.4663,-3.5623 1.2094,3.6561 0,0 z m -1780.24159,-2.2419 c -21.4601,-28.7258 37.7239,-2.4565 0,0 z m 1776.55409,1.5588 c 4.3834,-1.4324 0.4336,1.9251 0,0 z m 347.2664,-3.9002 c 1.4434,-2.6634 0.4459,4.3115 0,0 z m -1680.48473,-6.3451 c -13.11321,-10.5606 13.42819,2.8556 0,0 z m 857.9373,-0.5973 c -8.4373,-7.9126 6.4065,-31.2212 3.5063,-3.9509 l -1.8069,2.6653 -1.6994,1.2856 0,0 z m 337.46853,0.1924 c 3.031,-5.3099 3.0598,3.3146 0,0 z m -866.18754,-1.3498 c 4.38339,-1.4324 0.43361,1.9251 0,0 z m 870.85424,0.016 c 5.4722,-24.2742 12.9951,-8.6282 0,0 z m -11.7476,-2.6715 c -7.1567,-27.9925 33.4477,-17.494 4.1396,2.2227 l -4.1396,-2.2227 0,0 z m 3.7238,-1.1618 c 4.2713,-4.9311 -8.0765,3.5538 0,0 z m -0.1385,-3.5071 c 0.075,-4.9165 -7.128,3.2006 0,0 z m 5.9837,-0.9929 c -8.1963,-14.4849 -3.4325,7.8735 0,0 z m 1.5119,-4.559 c -3.1061,-3.6267 -1.8976,5.0354 0,0 z m -8,-1.441 c -2.4663,-3.5623 -1.2094,3.6561 0,0 z m 9,-2 c -2.5549,-3.5875 -2.5549,3.5874 0,0 z M 5.06366,-2214.5151 c 1.57625,-7.0389 4.90518,-0.2427 0,0 z m 310.9682,-1.3011 c 6.28261,-11.3896 0.31859,9.321 0,0 z m 547.00001,1.4287 c -2.7458,-15.7959 8.6491,-18.5546 0,0 z m -871.00001,-6.0938 c 25.47471,-32.5112 -1.23612,17.1755 0,0 z m 1036.81254,4.4107 c 4.3835,-1.4324 0.4337,1.9251 0,0 z m -963.14387,-2.9816 c -7.69437,-4.9822 -12.57677,-32.1613 10.40465,-28.3349 26.58515,12.6017 16.28736,19.2226 4.69268,22.3858 0.87652,5.1307 -9.0165,2.7182 -15.09733,5.9491 z m 3.58133,-9.0555 c 7.45213,-4.9136 -5.28089,-6.2142 0,0 z m -4.25,-4.7798 c -3.8315,-5.4633 -0.97085,5.582 0,0 z m 17.5,-3.5386 c -2.98243,-4.7214 -6.09368,10.0406 0,0 z m -6.5,0.039 c -3.84426,-3.5852 -2.56315,3.7039 0,0 z m -9.87591,-2.2667 c -2.27631,0.7537 3.34719,3.7101 0,0 z m 3.05017,-2.959 c -3.59782,-3.4791 -2.45062,5.2201 0,0 z m 8.20401,-0.3197 c -12.78531,-6.9799 2.66391,8.1102 0,0 z m 782.62174,22.6044 c 1.8976,-5.0354 3.1061,3.6266 0,0 z m 169.00003,-1.059 c 2.4663,-3.5623 1.2094,3.6561 0,0 z m -706.50004,-1 c 1.20936,-3.6562 2.46629,3.5623 0,0 z m 816.57894,-3.143 c 7.0436,-6.571 1.8088,2.0745 0,0 z m -204.07893,-3.416 c 1.1563,-3.5186 2.6705,3.2769 0,0 z m 146.00003,0.5904 c -23.7602,-8.9356 -35.418,-35.2095 -17.8764,-51.3338 21.3434,-16.7198 47.1476,12.8037 30.6645,33.244 4.3684,9.1784 -5.3655,18.9101 -12.7881,18.0898 z m 48.991,-2.5551 c -7.5184,-26.829 25.0203,-4.412 7.3706,0.024 -0.5354,0.5341 -7.0351,1.529 -7.3706,-0.024 z m 9.009,-7.0353 c -2.3668,-5.3334 -1.3972,6.4257 0,0 z m 5.1432,6.6687 c -2.6598,-3.3222 3.8721,-0.015 0,0 z m 75.6693,-5.7928 c 4.3834,-1.4324 0.4336,1.9251 0,0 z m -21.1458,-1.9836 c -3.0801,-4.5287 4.3998,0.8553 0,0 z m 224.8434,-0.3496 c 3.0894,-2.9454 0.7827,3.5697 0,0 z m -1524.76014,-0.7487 c -36.31171,-36.6248 53.12448,-18.662 0,0 z m 1307.75004,-1.235 c 2.4663,-3.5623 1.2094,3.6561 0,0 z m -395.36383,-10.25 c -30.2646,-3.0339 7.3309,-40.832 8.823,-9.8924 -9.9537,5.6049 -13.3335,-18.6739 -8.5255,7.1428 8.0312,-4.487 7.4722,0.2633 -0.2975,2.7496 z m -3.1362,-4.25 c -2.4793,-5.269 -2.4793,5.269 0,0 z m -2.5528,-4.5854 c -4.5201,-1.9024 -0.3199,4.8937 0,0 z m -3.0307,-1.5577 c 1.1548,-6.9529 -4.4163,6.0289 0,0 z m 4.7835,-10.5569 c -3.8627,0.5657 2.7314,5.2284 0,0 z m 11.6125,15.5169 c 4.3835,-1.4324 0.4337,1.9251 0,0 z m 389.00003,-3 c 4.3834,-1.4324 0.4336,1.9251 0,0 z m -386.81253,-4.2579 c 1.8976,-5.0354 3.1061,3.6266 0,0 z m -323,-1.559 c 5.3945,-3.592 3.1568,4.9711 0,0 z m -846.82716,-7.1413 c -36.3653,-14.134 20.8924,-37.8988 11.1333,-5.0023 -3.6447,1.7582 -7.2528,3.847 -11.1333,5.0023 z m 1440.82719,-7.3587 c -3.694,-4.552 6.0343,2.1664 0,0 z m 134.5,-8 c 1.2094,-3.6562 2.4663,3.5623 0,0 z m -1039.42109,-9.5833 c 1.44327,-2.6634 0.44611,4.3114 0,0 z m 190.73355,0.9002 c 4.38339,-1.4324 0.43361,1.9251 0,0 z m -432.26279,-11.3169 c 7.93141,-11.8264 -3.16691,9.0556 0,0 z m 739.3705,-4.0376 c -17.1675,-48.9012 55.6139,6.2507 0,0 z m -344.42021,-4.9624 c 3.90318,-3.6531 3.90318,3.6531 0,0 z m 324.25001,0.3377 c 5.5068,-1.6231 0.9994,1.7503 0,0 z m 92.75,-0.3377 c 1.2094,-3.6562 2.4663,3.5623 0,0 z m 205.51534,-4.8282 c -18.99004,-0.4905 -31.36984,-26.8223 -15.94994,-34.5884 18.91334,-16.1315 32.39464,-14.9878 36.18464,4.0959 9.0102,12.0573 -7.5335,29.9434 -20.2347,30.4925 z m -388.99674,-5.1941 c -15.7108,-21.0234 17.1439,-0.93 18.3852,-14.1906 -7.7251,28.7415 -5.309,-4.0324 -19.9398,6.6058 -1.5349,0.7632 8.1196,13.5081 1.5546,7.5848 z m 2.0852,-11.2739 c -5.1649,0.7418 2.4285,3.508 0,0 z m 11.8214,-0.75 c -8.5113,-0.3804 -0.027,3.5024 0,0 z m -15.321,-1.683 c -4.3631,2.3583 2.8782,2.8818 0,0 z m 7.2164,-0.9238 c -1.708,-3.6022 -9.8748,3.7276 0,0 z m -5.459,-1.847 c -0.8654,-5.2821 -2.3735,5.247 0,0 z m 11.6384,-0.5 c -2.4663,-3.5623 -1.2094,3.6561 0,0 z m -17,17.607 c 0.4557,-2.6851 5.9134,0.8961 0,0 z m 9,-1.1384 c 7.8941,-9.0523 0.9577,6.2222 0,0 z m -681.50001,-0.4686 c 2.46629,-3.5623 1.20936,3.6561 0,0 z m -9.5,-4.059 c 3.09154,-5.4059 1.77695,6.787 0,0 z m 816.00001,-1.941 c 2.555,-3.5875 2.555,3.5874 0,0 z m 5.2442,-0.9807 c 0.6929,-6.6526 -16.317,-4.7751 0.7558,-12.0395 3.5364,4.0765 12.5584,11.0918 -0.7558,12.0395 z m 230.2019,-1.1064 c -0.235,-6.7507 3.9442,3.9426 0,0 z m -1048.41715,-0.8738 c -4.54251,-4.556 8.96288,2.4375 0,0 z m 177.72104,0.2986 c 5.50682,-1.6231 0.99942,1.7503 0,0 z m -13.40818,-4.8893 c -25.10206,-1.1211 9.76518,-43.0216 11.3768,-6.4637 -3.24753,1.1397 -10.93981,9.1946 -11.3768,6.4637 z m 1098.47072,0.8685 c 4.3835,-1.4324 0.4337,1.9251 0,0 z m 585.3981,-0.8549 c -1.1527,-4.1843 4.5944,2.1471 0,0 z m 3.8683,-0.045 c 1.4434,-2.6634 0.4459,4.3115 0,0 z m -1351.57894,-4.4167 c 1.20936,-3.6562 2.46629,3.5623 0,0 z m 204.03511,-1.5868 c -1.318,-9.2528 5.4341,9.6919 0,0 z m 609.19823,1.4627 c 3.7101,-3.3473 0.7538,2.2763 0,0 z m -485.23333,-0.8759 c 2.4663,-3.5623 1.2094,3.6561 0,0 z m -1188.74996,-2.3921 c 6.2079,-7.0978 19.8527,-9.7428 0.6194,-15.1248 -4.5285,24.1272 -15.8627,-18.7509 15.0306,1.9169 5.1598,8.0492 -7.7685,13.9746 -15.65,13.2079 z m 342.24995,0.3921 c -26.2833,-26.8687 41.11485,-11.7566 0,0 z m 1863.00004,0 c 3.9032,-3.6531 3.9032,3.6531 0,0 z m 6,-1 c 2.4663,-3.5623 1.2094,3.6561 0,0 z m -6.9211,-2.6682 c -3.8577,-7.4023 3.4098,-0.1565 0,0 z m -1303.57894,-2.4175 c -34.27572,-29.9829 42.1726,-36.5142 15.48466,-1.9143 -4.87596,3.0476 -10.32983,-0.4127 -15.48466,1.9143 z m 1307.31254,-1.5974 c 4.3834,-1.4324 0.4336,1.9251 0,0 z m -892.00003,-2 c 4.3835,-1.4324 0.4337,1.9251 0,0 z m 282.00003,0 c 4.3835,-1.4324 0.4337,1.9251 0,0 z m -438.06253,-7.9792 c 5.5068,-1.6231 0.9994,1.7503 0,0 z m 65.1815,-1.7552 c -32.6738,-3.811 -4.6165,-42.9415 9.8519,-12.2361 0.1404,3.3625 -9.5413,14.7064 -9.8519,12.2361 z m 597.43723,-2.0642 c -28.7733,-10.2648 -0.9013,-40.7142 15.0441,-33.6594 8.0213,3.5992 8.3572,34.7959 -13.8848,35.1411 l -1.1589,-1.4817 -4e-4,0 z m -1421.04447,-10.1156 c 11.89952,-8.8393 6.93844,-5.2328 0,0 z m 10.14469,0.5471 c 2.00646,-4.764 2.86946,3.2385 0,0 z m 160.53104,-1.3908 c 1.89761,-5.0354 3.10608,3.6266 0,0 z m -499.18745,-1.2421 c 4.3833,-1.4324 0.4336,1.9251 0,0 z m 1944.18749,-3.2618 c -14.7062,-6.498 12.8062,-2.416 0,0 z m -1792.3399,-3.4984 c -26.72749,1.7484 -4.94769,-23.0328 -26.66589,-22.5474 5.8476,-4.9731 35.65605,-15.3758 39.98738,8.4687 1.13351,9.0524 -9.02185,9.8038 -13.32149,14.0787 z m 1558.4978,-0.5567 c 0.8751,-4.5074 0.8751,4.5074 0,0 z m 225.6546,1.3169 c 4.3834,-1.4324 0.4336,1.9251 0,0 z m 17.7716,-0.9583 c 1.9595,-2.2616 2.1727,5.5166 0,0 z m -1953.58409,-0.3586 c 2.4662,-3.5623 1.2093,3.6561 0,0 z m 1931.67569,-0.4028 c 2.3342,-10.7103 1.812,4.411 0,0 z m -226.009,-0.2639 c -0.4801,-4.8367 5.579,2.3295 0,0 z m -8.6667,-1.7743 c 5.1187,-8.7534 1.2924,5.8928 0,0 z m 252,-1.059 c -1.5737,-10.7752 3.9294,4.3917 0,0 z m 9.0984,-1.1835 c -2.7971,-11.521 6.7566,7.8516 0,0 z m -13.5984,0.6835 c 2.5632,-3.7039 3.8442,3.5852 0,0 z m -251,-2 c 1.2094,-3.6561 2.4663,3.5623 0,0 z m 248,0 c 1.2094,-3.6561 2.4663,3.5623 0,0 z m -229,-1 c 1.2094,-3.6561 2.4663,3.5623 0,0 z m 215,0 c 2.4663,-3.5623 1.2094,3.6561 0,0 z m 9.5,-0.5 c 2.4793,-5.269 2.4793,5.269 0,0 z m -1807.99999,-0.559 c 2.8802,-1.9056 2.3337,3.4347 0,0 z m 1566.99999,-1 c 2.8802,-1.9056 2.3337,3.4347 0,0 z m -814.95233,-0.8903 c -18.51873,-7.4586 1.2469,-12.4748 0,0 z m 822.10143,-0.715 c -3.8121,-5.3227 5.7521,2.1066 0,0 z m 254.5846,0.8894 c -1.7179,-5.9349 14.3134,-0.9142 0,0 z m -261.9981,-1.8229 c -0.2298,-9.6451 5.8296,3.4995 0,0 z m 14.8897,-1.9022 c 4.6484,-7.9524 -1.6058,7.913 0,0 z m 229.3747,1.0833 c -3.5398,-7.0231 3.534,4.0275 0,0 z m -1813.99999,-0.5833 c -3.694,-4.552 6.0341,2.1664 0,0 z m 755.49996,0 c -0.4055,-6.363 5.5753,1.3722 0,0 z m 1066.13053,-0.03 c 6.7306,-1.3562 4.4986,2.9588 0,0 z m 15.5695,-0.1695 c -4.1052,-7.6868 6.8665,4.8817 0,0 z m -1845.58049,-0.6065 c 1.8313,-6.48 5.4059,-1.4904 0,0 z m 1814.63049,0.06 c -4.962,-4.4892 10.2809,0.745 0,0 z m -1217.43754,-0.937 c 4.38339,-1.4324 0.43361,1.9251 0,0 z m 1228.93754,-1.5575 c -8.3383,-5.5713 16.8135,-1.6463 0,0 z m 10.5,1.2094 c -8.129,-5.5555 9.2847,1.6234 0,0 z m -250.25,-0.9406 c -18.9579,-2.4741 5.8076,-4.4077 0,0 z m -1571.99999,-1.0872 c 2.8802,-1.9056 2.3337,3.4347 0,0 z m 1805.24999,0.3967 c -1.4291,-6.5931 4.8829,2.8247 0,0 z m -485.7155,-2.103 c -9.752,-8.6803 -11.3894,-25.0268 7.776,-21.1552 -0.01,15.1037 7.0917,10.169 -7.776,21.1552 z m -1324.53449,-1.2347 c 2.5549,-3.5875 2.5549,3.5874 0,0 z m 1119.00066,-1.25 c -7.3704,-20.8085 25.6575,-6.3404 0,0 z m 6.9993,-4.75 c -1.2094,-3.6562 -2.4662,3.5623 0,0 z m 1,5.5 c 4.9148,-5.7569 0.7112,5.8745 0,0 z m 202.00003,0.441 c 2.8802,-1.9056 2.3337,3.4347 0,0 z m -9,-0.334 c 3.9042,-3.2605 4.008,1.7751 0,0 z m 487.6395,-2.3009 c -3.0583,-11.8542 5.0827,2.4206 0,0 z m -693.63953,-1.4599 c 2.6642,-10.9819 8.0385,2.6861 0,0 z m 690.00003,0.095 c 2.8802,-1.9056 2.3337,3.4347 0,0 z m 10,-0.8229 c 1.6498,-4.6687 3.4708,1.7236 0,0 z m -1175.50004,-2.8794 c -21.22951,-8.399 7.51861,-34.4922 14.72032,-14.857 7.75455,7.5723 -8.49067,19.9969 -14.72032,14.857 z m 9.5,-5.5475 c -6.12073,-14.9294 -2.8984,5.9701 0,0 z m 1.61644,-4.4412 c -12.02246,-24.9231 -0.43764,10.7319 0,0 z m -4.88727,-1.8541 c -3.95984,-2.1014 -0.93439,2.2531 0,0 z m 1173.27087,11.6041 c -4.3532,-7.0697 8.1572,6.9555 0,0 z m 4.25,0.5042 c -4.5821,-8.887 7.3773,5.557 0,0 z m 10.75,-1.0632 c 1.1563,-3.5186 2.6705,3.2769 0,0 z m -520,-5.441 c -0.3222,-15.5911 10.9454,0.8713 0,0 z m -1377.18749,-0.6831 c 4.3833,-1.4324 0.4336,1.9251 0,0 z m 694.18745,-8.8169 c 0.86541,-5.2821 2.37355,5.247 0,0 z m -835.67675,-6.2932 c -18.0608,-11.9134 -11.9809,-25.4228 -40.4754,-13.0158 -20.1105,-14.9626 0.04,-67.972 -8.7164,-75.6133 -0.7094,-20.6066 25.1369,-16.5843 24.9276,0.4223 9.8722,-12.4672 32.1832,28.8024 26.845,18.9998 11.6968,8.4211 2.561,27.5953 -7.423,45 -18.5743,16.1115 26.0408,7.4004 4.8422,24.207 z m 2.6768,-6.2068 c -6.3914,-2.3521 0.7298,3.3054 0,0 z m -37.6158,-17 c -4.5395,-0.974 -1.0966,8.082 0,0 z m 6.2707,1.5431 c -4.6092,-5.7349 0.7442,6.9441 0,0 z m 9.8451,-2.0431 c -2.4173,-8.4985 -1.2617,8.6289 0,0 z m -17.7156,-4.8333 c -4.3968,-8.2259 -0.1643,7.4318 0,0 z m 24.2156,0.2711 c 8.7358,-13.7114 -10.3396,-12.9037 -2.0001,1.7872 l 2,-1.7871 10e-5,-10e-5 z m -11,-1.4968 c -3.1061,-3.6266 -1.8977,5.0354 0,0 z m 4,-3.441 c -2.4663,-3.5623 -1.2094,3.6561 0,0 z m -25,-2 c -1.2094,-3.6562 -2.4663,3.5623 0,0 z m 4.4572,-0.9309 c 1.1237,-3.8604 -3.8771,0.6283 0,0 z m 8.5428,-0.5101 c -2.3338,-3.4348 -2.8802,1.9056 0,0 z m -12,-1.559 c -5.3894,-4.9063 -2.4624,2.9355 0,0 z m 15.5,-1 c -11.2102,-0.6264 -2.5578,0.4083 0,0 z m -13.5,-1.441 c -2.3338,-3.4348 -2.8802,1.9056 0,0 z m 8.4573,-0.4899 c 1.1236,-3.8604 -3.8772,0.6284 0,0 z m 17.9043,-0.5691 c 6.7138,-20.5951 -2.6808,-9.05 0,0 z m -23.377,-2.809 c -4.2899,-0.9086 -0.6625,5.934 0,0 z m 31.0154,-0.691 c -2.5632,-3.7039 -3.8443,3.5852 0,0 z m -10,-1 c -2.555,-3.5875 -2.555,3.5874 0,0 z m 22.5646,-4.7687 c -4.5111,1.0465 -2.3169,7.2268 0,0 z m -48.8355,2.1645 c -3.9598,-2.1014 -0.9344,2.2531 0,0 z m 15.0777,-1.9223 c -3.5254,0.1447 1.0314,4.1698 0,0 z m -8.259,-4.5048 c -1.8979,-7.1141 -2.2877,14.4314 0,0 z m 43.709,-2.713 c -5.1253,-2.3809 0.9337,10.2291 0,0 z m -12.2769,1.2201 c -5.8386,-3.8446 3.5417,4.8592 0,0 z m -20.9799,-0.9758 c -1.3437,-5.0351 -3.3645,2.3953 0,0 z m -5.2709,-1.1042 c -3.9596,-2.1016 -0.9347,2.2533 0,0 z m 24.2709,-3.5861 c -6.8256,-0.8559 0.015,4.0158 0,0 z m -8.7103,-0.8097 c -0.7089,-6.9604 -2.2818,6.9636 0,0 z m 22.6902,0.4758 c -4.7057,-4.5855 1.873,5.0918 0,0 z m -6.9799,-4.3688 c -0.9395,-4.8687 -4.0441,1.7543 0,0 z m -40.4589,-5.0405 c -2.3881,-4.2114 -2.0711,2.4637 0,0 z m 22.4589,-0.9499 c -4.5508,-10.8714 -3.4629,7.8065 0,0 z m 10.5,0.8834 c -1.2094,-3.6562 -2.4663,3.5623 0,0 z m -19.5,-0.441 c -2.3338,-3.4348 -2.8802,1.9056 0,0 z m 3,-3.559 c -2.4663,-3.5623 -1.2094,3.6561 0,0 z m -18.25,-2.6893 c 19.5785,-9.249 -13.5436,-4.339 0,0 z m 4.75,-0.076 c 5.7211,-9.1907 -6.2579,3.5696 0,0 z m 15.2291,0.1611 c -3.9597,-2.1015 -0.9344,2.2534 0,0 z m 12.3984,-1.1458 c -0.7652,-4.3707 -6.9658,7.1057 0,0 z m -22.5465,-4.6976 c -1.954,-10.8026 0.3576,11.9503 0,0 z m 5.919,2.4476 c -2.5632,-3.7039 -3.8443,3.5852 0,0 z m 9.271,-0.8132 c -1.6892,-2.698 -5.415,4.6996 0,0 z m 5.229,-1.3868 c -3.8219,-4.2349 -0.039,6.5902 0,0 z m -33.5,0.2 c -2.555,-3.5875 -2.555,3.5874 0,0 z m 18.9159,-11.6414 c -1.9596,-2.2616 -2.1728,5.5166 0,0 z m -11.9136,-1.5999 c -2.3028,-3.1651 -5.1635,3.2912 0,0 z m 657.49765,96.2099 c 3.90414,-3.2605 4.00797,1.7751 0,0 z m -3.71823,-4.72 c -12.4985,-9.2485 12.25888,-14.037 0,0 z m -646.64112,-5.4589 c 0.9804,-12.379 2.751,7.297 0,0 z m 3.8594,-1.7897 c 1.2093,-3.6562 2.4662,3.5623 0,0 z m 853.16662,-1.6667 c -3.07996,-4.5288 4.39982,0.8553 0,0 z m 89.33333,-1.3333 c 2.46629,-3.5623 1.20936,3.6561 0,0 z m 3.5,-1 c 2.46629,-3.5623 1.20936,3.6561 0,0 z m -503.42105,-2.5833 c 1.44328,-2.6634 0.44611,4.3114 0,0 z m 1051.6711,-1.2041 c -18.058,-31.4212 31.77199,-3.7317 0,0 z m 4.9331,-8.4001 c -1.9252,0.4337 1.4328,4.3834 0,0 z m -591.87065,4.5044 c 4.38339,-1.4324 0.43361,1.9251 0,0 z m -111.94938,-2.2276 c -24.95131,-11.8798 22.72187,-18.2707 0,0 z m -766.12977,-5.2134 c 3.7099,-3.3472 0.7537,2.2763 0,0 z m 460.76665,-0.8759 c 1.20936,-3.6562 2.46629,3.5623 0,0 z m -7.5,-1.5 c 2.47933,-5.269 2.47933,5.269 0,0 z m 1336.00004,0.5 c 3.9032,-3.6531 3.9032,3.6531 0,0 z m -1636.99999,-1.059 c 2.8802,-1.9056 2.3337,3.4347 0,0 z m 1205.07886,-0.5243 c 1.4435,-2.6634 0.4459,4.3115 0,0 z m -1226.99996,-2 c 1.4433,-2.6634 0.4461,4.3114 0,0 z m 1216.99996,0 c 1.4435,-2.6634 0.4459,4.3115 0,0 z m -1344.76786,-0.8471 c 1.3207,-15.3211 4.315,3.2311 0,0 z m 142.1834,-1.5757 c -17.819,2.8066 12.4805,-29.3618 -3.3312,-30.241 22.3109,-12.2775 43.0945,25.8094 11.4048,30.0328 -3.651,4.6088 -5.0011,-2.1138 -8.0736,0.2082 z m 102.50555,1.0375 c 4.00797,-1.7751 3.90415,3.2605 0,0 z m 4.75,-0.1115 c -3.8145,-9.7002 11.86195,1.3642 0,0 z m 206.25,0.08 c 2.46629,-3.5623 1.20936,3.6561 0,0 z m 11,-0.5 c -11.47114,-4.9005 6.75625,-5.5419 0,0 z m 159.75,-1.1893 c -4.30826,-13.6351 14.8648,5.2916 0,0 z m -370.75,-1.4095 c 11.75856,-17.3196 10.42427,2.5728 0,0 z m 166.5,0.099 c 2.46629,-3.5623 1.20936,3.6561 0,0 z m 58.5,0.2127 c 1.58374,-3.8538 10.13668,3.0019 0,0 z m 1313.00004,-0.2127 c -0.6298,-3.064 5.0389,2.0265 0,0 z m -1348.50004,-1 c 1.20936,-3.6562 2.46629,3.5623 0,0 z m -208.03104,-1.0502 c 1.59253,-4.005 2.98248,3.1776 0,0 z m 10.58357,-1.8516 c 2.65741,-5.2275 2.92758,6.0615 0,0 z m -3.38586,0.2351 c -2.44559,-15.2686 4.65239,3.8433 0,0 z m 177.33333,-0.8333 c 2.47933,-5.269 2.47933,5.269 0,0 z m -185.35156,-1.7515 c -4.22041,-3.4419 7.97789,-25.8297 6.08966,-6.4945 -1.83949,2.522 -0.20849,9.5704 -6.08966,6.4945 z m 203.85156,0.2515 c -4.88018,-3.567 7.92978,2.7685 0,0 z m -184.88691,-1.183 c 2.84534,-2.4225 0.78124,3.0372 0,0 z m 730.19942,0.4999 c 4.3834,-1.4324 0.4336,1.9251 0,0 z m 117.8542,0.016 c -8.8481,-3.2022 -25.0473,-31.9177 -29.9794,-20.3365 -14.8098,-22.8346 19.1292,-40.2175 13.6049,-38.3774 22.0476,-6.6448 22.9454,-6.9352 39.2972,12.8774 13.639,4.6274 -9.3427,42.0042 -2.7573,33.5 4.8034,4.2795 -14.1873,2.8076 -20.1654,12.3365 z m -8.6667,-11.2357 c -4.8866,-2.7349 -4.7466,3.9627 0,0 z m 4.2901,-0.099 c -0.8023,-5.4091 -2.0256,6.6538 0,0 z m 15.8113,-1.3764 c 7.2108,-8.1597 -11.9137,-9.0325 0,0 z m -25.1014,-0.6222 c -2.4663,-3.5623 -1.2094,3.6561 0,0 z m 17.3616,-1.5 c -3.4843,-5.4232 -0.628,5.5091 0,0 z m -22.3817,-1.0242 c -4.7056,-4.5854 1.8732,5.0918 0,0 z m -4.9799,-1.4758 c -2.555,-3.5875 -2.555,3.5874 0,0 z m 18.5,0 c -1.2094,-3.6562 -2.4663,3.5623 0,0 z m -15.5,-2.441 c -2.3337,-3.4348 -2.8802,1.9056 0,0 z m 33,-2.059 c -7.9191,-7.2568 -5.1702,2.7191 0,0 z m 5.25,0.8377 c -3.0513,-7.1739 -2.4603,1.9684 0,0 z m -14.25,-2.5377 c -3.822,-4.2349 -0.039,6.5902 0,0 z m 10.6667,-5.3 c -3.5803,-5.4567 -0.38,5.5312 0,0 z m 5.8333,0.5 c -1.2094,-3.6562 -2.4663,3.5623 0,0 z m -0.027,-3.0438 c 4.4868,-8.9178 -10.41,-7.4318 0,0 z m -3.473,-2.9562 c -1.2094,-3.6562 -2.4663,3.5623 0,0 z m -38,-3.5634 c -2.8164,-6.7832 -2.5062,8.1311 0,0 z m 2.3882,-7.313 c 1.7946,-8.0151 -5.4736,6.3328 0,0 z m 11.5002,-7.7581 c -6.8697,-1.9757 -1.6452,6.2597 0,0 z m 6.1116,-1.3341 c -4.008,-1.7751 -3.9042,3.2605 0,0 z m -5.4735,-6.8383 c -4.1698,-1.0314 -0.1447,3.5255 0,0 z m -648.89956,57.7525 c -5.5994,-14.742 10.20924,10.1789 0,0 z m -198.12695,1.0544 c 3.84426,-3.5852 2.56315,3.7039 0,0 z m 13.13916,-0.4979 c -2.3038,-10.0345 4.56944,3.1774 0,0 z m 162.17334,0.8148 c 4.38339,-1.4324 0.43361,1.9251 0,0 z m 30.78756,-0.082 c 2.52266,-7.2751 3.02626,3.7138 0,0 z m 25.89994,-0.2347 c 1.20936,-3.6562 2.46629,3.5623 0,0 z m -214.42105,-1.5833 c 1.44328,-2.6634 0.44611,4.3114 0,0 z m 217.42105,0.5833 c 3.99416,-3.9564 7.37427,1.2517 0,0 z m -229.52896,-0.9609 c -13.43351,-6.3132 3.13268,-18.0128 0,0 z m 182.02896,-0.4225 c 0.99547,-2.4885 7.99042,0.9917 0,0 z m 1313.01534,-0.3548 c -25.6634,-3.7336 -5.6305,-38.2159 -23.6453,-32.4966 5.3701,-30.927 5.8193,-5.6318 -10.0607,-9.8815 13.6986,-3.3017 16.7455,-30.3823 5.1996,-8.057 -8.8838,-12.2071 32.7383,-30.6067 20.4914,-32.5095 18.0465,-16.5958 10.0802,20.6322 20.3248,16.4565 16.7056,17.5867 3.0574,22.767 -1.8351,10.2214 -7.9663,-11.1009 -14.4059,-16.719 -13.2733,0.682 -1.0148,-3.7586 22.4661,24.1559 17.9107,13.2475 8.4166,-11.1958 10.6928,-37.6173 13.8574,-9.0587 -10.7526,16.1262 -14.0914,41.0405 -0.6612,35.5386 -4.1545,11.3725 -16.8535,16.3555 -28.3083,15.8573 z m -10.0153,-33.2618 c -1.2094,-3.6562 -2.4663,3.5623 0,0 z m -6,-2.441 c -4.8727,-3.5226 -1.544,2.4553 0,0 z m 3.5256,-1.4784 c 23.3095,-12.1018 9.7109,7.0804 -1.5256,-0.5806 l 1.5158,2.4465 0.01,-1.8659 0,0 z m 6.7287,-2.2263 c -4.2424,-4.115 -3.2984,5.6871 0,0 z m 12.3171,-5.4257 c -7.2762,-4.2787 4.8298,6.4695 0,0 z m 18.1786,-1.9286 c -7.1239,-0.063 -1.3085,-1.1911 0,0 z m -19.75,-2.5 c 8.8366,-4.6064 -7.201,0.9003 0,0 z m -12.6384,-2.5 c -0.8654,-5.2821 -2.3735,5.247 0,0 z m -6.9319,-6.6137 c 2.7818,-8.3797 -9.8515,4.3249 0,0 z m -10.2024,-1.295 c -5.0428,-6.8074 -2.4443,7.2217 0,0 z m 15.1343,-0.091 c -0.8654,-5.2821 -2.3735,5.247 0,0 z m 35.6811,-0.9736 c -0.4291,-5.6874 -5.5943,3.9064 0,0 z m -31.0838,-5.0518 c -4.9157,-15.8702 -9.6016,14.0878 0,0 z m -10.5016,-0.5437 c 3.4963,-8.8454 -12.8916,0.2427 0,0 z m 24.5427,-4.4309 c -0.5435,-5.162 -4.9056,4.7665 0,0 z m -24,-2.559 c -3.1061,-3.6266 -1.8976,5.0354 0,0 z m 14.5,1.059 c -1.2094,-3.6562 -2.4663,3.5623 0,0 z m -6.9071,-1.6127 c 11.7603,-17.3241 -14.8256,8.715 0,0 z m 11.7312,0.2105 c -2.0745,-7.1748 -2.6712,5.7451 0,0 z m 10.3432,-1.2638 c -8.0466,1.8246 0.2271,3.0981 0,0 z m 3.8327,-0.334 c -3.8442,-3.5852 -2.5632,3.7039 0,0 z m -33.5,-1 c -1.2094,-3.6562 -2.4663,3.5623 0,0 z m 16,-4.3776 c 0.3377,-3.7898 -6.2849,0.083 0,0 z m 315.1677,78.909 c 5.3923,-7.6182 -2.1712,8.3579 0,0 z M 4.03186,-2495.4453 c 2.8802,-1.9056 2.33371,3.4347 0,0 z m -232.01879,-1.9526 c -3.1127,-5.3401 6.87846,2.3992 0,0 z m 175.15576,0.675 c 3.85893,-4.3003 4.6752,0.8949 0,0 z m 23.86303,-1.7224 c 2.8802,-1.9056 2.33371,3.4347 0,0 z m -183.1875,-0.6241 c 4.38339,-1.4324 0.43361,1.9251 0,0 z m 158.1875,-3.2855 c 3.98147,-5.2684 1.87024,6.5127 0,0 z m 4.5,0.9686 c 1.20936,-3.6562 2.46629,3.5623 0,0 z m 20.5,0.031 c 4.00797,-1.7751 3.90415,3.2605 0,0 z m 1142.01534,0.3411 c 3.3243,-7.4468 2.937,0.9829 0,0 z m -1122.51534,-2.3725 c 1.20936,-3.6562 2.46629,3.5623 0,0 z m -216.79338,-2.0139 c 11.62076,-1.2239 4.32934,-0.7271 0,0 z m 199.29338,0.5139 c 6.29518,-10.4716 9.56227,4.2135 0,0 z m 32.66667,0.8333 c -1.93664,-5.4135 3.01543,-0.2571 0,0 z m 1593.41227,-0.9166 c 1.4434,-2.6634 0.4459,4.3115 0,0 z m -1639.07894,-0.4757 c 2.8802,-1.9056 2.33371,3.4347 0,0 z m 59,-0.941 c -0.62976,-3.064 5.03889,2.0264 0,0 z m 1094.15794,-3 c 0.8751,-4.5074 0.8751,4.5074 0,0 z m -1099.15794,-0.059 c 2.8802,-1.9056 2.33371,3.4347 0,0 z m -368.31385,-1.8487 c -13.7055,-5.028 -18.6953,-31.4762 1.7088,-33.9224 24.79,4.1058 1.4099,0.5445 5.855,16.8148 -7.1291,16.9964 8.1751,5.8505 -7.5639,17.1076 l 10e-5,0 z m -1.6861,-8.5923 c -4.8836,-17.275 -10.1486,-16.3903 0,0 z m 0,-2.941 c -2.3338,-3.4348 -2.8802,1.9056 0,0 z m 4,-0.559 c 6.4309,-4.852 -5.1475,0.7378 0,0 z m 1.0854,-4.4472 c 1.2265,-16.3579 -10.2998,-3.6041 0,0 z m -2.0854,-8.5528 c 2.1444,-6.8686 1.201,-0.8115 0,0 z m 3,-6 c -2.4663,-3.5623 -1.2094,3.6561 0,0 z m -121,30.9686 c 3.9041,-3.2606 4.0079,1.7751 0,0 z m 456.0789,-0.5519 c 1.44328,-2.6634 0.44611,4.3114 0,0 z m -23.4955,-2.0598 c -1.15436,-6.9529 4.4161,6.029 0,0 z m 1144.41659,0.6431 c -2.0263,-2.8277 4.3592,1.3719 0,0 z m -1498.92109,-1.5833 c 1.4433,-2.6634 0.4461,4.3114 0,0 z m 376.42105,-0.4167 c 2.46629,-3.5623 1.20936,3.6561 0,0 z m 1492.50004,0.607 c 0.4557,-2.6851 5.9134,0.8961 0,0 z m -1815.89529,-1.5211 c 0.3977,-23.5658 11.1551,-16.8324 0,1e-4 l 0,-1e-4 z m 2.8953,-16.0859 c -1.2094,-3.6562 -2.4663,3.5623 0,0 z m 302.81245,16.3169 c 4.38339,-1.4324 0.43361,1.925 0,0 z m 1130.21814,0.1831 c 0.8147,-5.586 3.5044,-1.3595 0,0 z m 104.4593,-0.5163 c -31.8933,-14.828 11.3892,-39.6873 14.3739,-22.6128 4.7897,9.6811 -4.3199,22.4777 -14.3739,22.6128 z m -1248.4545,-2.1747 c 1.28999,-7.8445 5.23083,-8.3217 0,0 z m -3.03544,-1.868 c 2.8802,-1.9056 2.33371,3.4347 0,0 z m 20.8125,0.3759 c 4.38339,-1.4324 0.43361,1.9251 0,0 z m 20.6875,-1.3169 c 2.46629,-3.5623 1.20936,3.6561 0,0 z m -121.5,-0.393 c 3.90415,-3.2605 4.00797,1.7751 0,0 z m 134.8125,-0.2901 c 4.38339,-1.4324 0.43361,1.9251 0,0 z m 1480.30184,-0.2463 c -2.6097,-3.0324 4.5933,-0.6725 0,0 z m -1536.11434,-1.0706 c -0.62976,-3.064 5.03889,2.0264 0,0 z m -419.92105,-1.5833 c 1.4434,-2.6634 0.4458,4.3115 0,0 z m 1425.2819,0.7452 c -20.95864,-38.7067 44.7647,-7.2374 3.1688,-0.1732 l -3.1688,0.1732 0,0 z m 101.09809,-0.2284 c 2.071,-2.4637 2.3879,4.2113 0,0 z m 194.4135,-0.6835 c -3.0293,-4.6514 5.518,6.0603 0,0 z M -4.88919,-2525.97 c 1.44328,-2.6634 0.44611,4.3114 0,0 z m -480.0789,-1.9757 c 1.1563,-3.5186 2.6705,3.2769 0,0 z m 153,0.5 c 2.8802,-1.9056 2.3337,3.4347 0,0 z m 322.99995,0.059 c -2.47946,-3.9386 7.32839,4.1929 0,0 z m -334.48995,-1.0163 c 3.0895,-2.9454 0.7827,3.5697 0,0 z m 310.48995,-0.9837 c -2.99336,-5.13 5.78562,2.1358 0,0 z m -456.78945,-1.6009 c -2.0634,-4.7377 4.6009,4.4445 0,0 z m 452.8684,0.017 c 1.44333,-2.6631 0.44604,4.3114 0,0 z m 1342.92109,0.7745 c 1.8857,-8.3612 4.2981,2.3328 0,0 z m -1652.99999,-2.1911 c -1.1552,-7.1957 5.6793,7.4209 0,0 z m 1819.49999,-1 c 2.5549,-3.5875 2.5549,3.5874 0,0 z m 3.5,0.059 c 0.1168,-4.3266 3.0501,0.9094 0,0 z m -1504.41076,-0.9145 c 2.18988,-1.7891 9.44985,2.9661 0,0 z m 24.66072,-0.1757 c -7.81274,-5.8154 9.99206,3.5112 0,0 z m -364.32655,-0.019 c -2.5032,-6.1771 3.6329,-3.3412 0,0 z m 550.82655,-1.6123 c 5.50682,-1.6231 0.99942,1.7503 0,0 z m -265.67105,-2.921 c 1.44328,-2.6634 0.44611,4.3114 0,0 z m -411.0789,-0.4757 c 2.8802,-1.9056 2.3337,3.4347 0,0 z m 964.99995,0.059 c -14.08761,-23.9883 25.67951,0.6629 0,0 z m 5.25001,-0.6623 c -5.50683,-1.6231 -0.9994,1.7503 0,0 z m -0.25,-4.3377 c -1.2094,-3.6562 -2.46627,3.5623 0,0 z m -996.92106,3.4167 c 1.4433,-2.6634 0.4461,4.3114 0,0 z m 11.9211,0.5833 c 2.4662,-3.5623 1.2093,3.6561 0,0 z m 171.5829,0.1342 c -2.3516,-4.9689 3.6563,1.4374 0,0 z m 321.22955,0.1827 c 4.38339,-1.4324 0.43361,1.9251 0,0 z m -499.14585,-1.9836 c -3.0799,-4.5288 4.3998,0.8553 0,0 z m 518.4123,-0.9166 c 1.44328,-2.6634 0.44611,4.3114 0,0 z m 647.65026,-0.021 c -3.3285,-5.0899 4.4682,-1.4326 0,0 z m -997.65026,-1.9792 c 1.4433,-2.6634 0.4461,4.3114 0,0 z m 991.42816,-3.4052 c 1.5044,-2.1392 2.5713,3.8902 0,0 z m 663.99293,-0.012 c 2.4663,-3.5623 1.2094,3.6561 0,0 z m 187.9589,-6.0665 c -2.1568,-3.5438 2.8169,0.03 0,0 z m -1071.45894,-1.7927 c -2.90194,-7.5514 4.35182,0.7449 0,0 z m 4.16486,0.1863 c -20.21771,4.1341 18.44276,-10.6105 0,0 z m 8.42563,-3.8226 c -1.04712,-13.9611 3.09971,9.0096 0,0 z m 2.74284,0.9955 c 3.09479,-5.2744 1.8944,5.3666 0,0 z m 248.66668,0.6084 c -26.1723,-3.1463 3.9784,-33.8003 5.9991,-8.0494 4.1678,5.439 -7.8926,4.9798 -5.9991,8.0494 z m -569.27362,-2.4993 c -0.53364,-36.2438 6.45911,11.8517 0,0 z m 6.35256,-0.1924 c 1.44327,-2.6634 0.44611,4.3114 0,0 z m 316.57604,-0.2454 c 7.32382,-23.0719 11.83995,-6.1918 0,0 z m 850.34505,0.8287 c 2.5632,-3.7039 3.8442,3.5852 0,0 z m -871.74944,-3.5022 c 1.52317,-12.4381 3.26087,11.9072 0,0 z m 875.24944,2.5022 c 1.2094,-3.6562 2.4663,3.5623 0,0 z m 214,-1 c 2.4663,-3.5623 1.2094,3.6561 0,0 z m -1081.16671,-2.4047 c 3.75219,-3.489 3.12007,4.7223 0,0 z m 8.66667,-2.5953 c 2.46629,-3.5623 1.20936,3.6561 0,0 z m -22.90256,-2.1239 c -6.69193,-15.9028 13.64089,7.0013 0,0 z m 8.60344,0.088 c -1.47519,-13.7659 7.89587,-2.5817 0,0 z m 624.66076,0.5359 c -23.0169,-27.3871 35.5275,-21.3794 6.52,-0.2503 -4.1676,-2.9503 -2.9649,2.6821 -6.52,0.2503 z m -604.36164,-0.5 c 2.46629,-3.5623 1.20936,3.6561 0,0 z m -3,-3.3445 c 1.01154,-6.0802 10.13765,-5.7267 0,0 z m 1055.56434,0.051 c 2.1558,-4.4639 1.089,2.5172 0,0 z m -202.5643,-0.7068 c 3.9032,-3.6531 3.9032,3.6531 0,0 z m -738.32363,-1.8051 c -2.9231,-6.8711 -14.0464,-24.5829 0.2447,-33.9093 11.4082,-0.4951 18.5405,-7.1541 27.0789,8.7738 3.8933,13.8882 3.1187,23.1155 -16,25.8186 -6.4332,-1.7836 -5.8935,1.8789 -11.3236,-0.6831 z m 5.7543,-5.0975 c -5.4478,2.8209 -3.4883,4.2914 0,0 z m 13.3283,-1.0974 c 14.9623,-6.953 -17.5001,-3.1063 0,0 z m -12.329,-3.8867 c 1.0765,-4.9938 -4.5977,0.343 0,0 z m 16.885,-5.2098 c -4.2409,-18.2263 -10.3947,1.5857 0,0 z m -25.815,0.096 c -1.2094,-3.6562 -2.4663,3.5623 0,0 z m 3.6627,-3.4839 c -4.4294,-7.6119 1.9389,12.095 0,0 z m 12.2673,2.5972 c 1.2891,-4.6458 -5.3832,0.4779 0,0 z m 2.9338,-2.6076 c -2.5091,-3.8491 -1.7537,2.9541 0,0 z m 10.6362,-0.9705 c -3.1752,-3.8239 -5.9968,-1.2592 0,0 z m -25,-4.6108 c -4.1502,-1.6856 -3.8235,4.6562 0,0 z m 16.5,-1.9244 c -3.7205,-3.7552 -5.4655,3.6609 0,0 z m -11.5,-0.393 c -3.9042,-3.2605 -4.008,1.7751 0,0 z m 3,-1.607 c -2.555,-3.5875 -2.555,3.5874 0,0 z m 691.00003,28 c 2.4663,-3.5623 1.2094,3.6561 0,0 z m -838.00004,-1.059 c 2.8802,-1.9056 2.33371,3.4347 0,0 z m 841.58294,-0.8068 c -2.3514,-4.9689 3.6565,1.4376 0,0 z m -845.58294,-0.7056 c 2.51915,-5.9824 7.19404,1.9034 0,0 z m 854.30534,-0.1271 c -7.0439,-8.8357 10.939,3.9598 0,0 z m -844.30534,-1.3015 c 2.46629,-3.5623 1.20936,3.6561 0,0 z m 4,-0.525 c 9.48966,-11.916 18.49983,8.6768 0,0 z m 14.5,-1.475 c 2.46629,-3.5623 1.20936,3.6561 0,0 z m -297.64644,-2.4221 c 4.74146,-8.2224 -26.97355,4.4338 -6.02896,-18.2598 13.01284,-2.8252 11.41682,18.8219 6.02896,18.2598 z m -3.42382,-12.6916 c -8.0157,-2.0402 -0.50432,4.0097 0,0 z m 1399.84,12.183 c 8.7157,-13.72 3.1785,6.8391 0,0 z m -1100.83695,-1.4811 c -17.46597,-3.7166 -21.6276,-10.7264 -0.49887,-6.5478 -3.67287,2.6401 12.64534,9.466 0.49887,6.5478 z m -23.43279,-0.6818 c 5.6714,-12.3323 7.07214,7.5264 0,0 z m 8,1.0936 c -3.69395,-4.552 6.03419,2.1664 0,0 z m 849.50004,-1 c 1.2094,-3.6562 2.4663,3.5623 0,0 z m -772.68753,-1.6831 c 4.3834,-1.4324 0.4336,1.925 0,0 z m -57.00001,-2 c 4.38339,-1.4324 0.43361,1.925 0,0 z m -232.8125,-1.3759 c 2.8802,-1.9057 2.33371,3.4347 0,0 z m -221.62995,-4.3814 c -16.57387,-11.3544 7.55911,-28.7881 16.35274,-12.6073 -14.61234,7.8737 9.29446,11.5385 -16.35274,12.6075 l 0,-2e-4 z m 3.62995,-3.0006 c -1.85889,-6.531 -3.83626,5.304 0,0 z m -2.5,-4.559 c -1.20936,-3.6562 -2.46629,3.5623 0,0 z m 3.5,-0.559 c -1.15631,-3.5186 -2.67048,3.2769 0,0 z m 4,1.118 c -2.33371,-3.4348 -2.8802,1.9056 0,0 z m -9.5,-3.559 c -1.20936,-3.6562 -2.46629,3.5623 0,0 z m 10.35965,-2.8634 c -13.70895,-6.7293 -0.44679,5.9534 0,0 z m 585.85066,12.8634 c 2.2817,-6.9636 0.7088,6.9603 0,0 z m -644.71031,-1.9686 c -6.56689,-2.3602 4.87535,0.3352 0,0 z m 14,-2.4799 c 8.52127,-15.8449 5.87048,1.5333 0,0 z m 1686.54274,-2.4824 c -1.1237,-3.8604 3.8772,0.6284 0,0 z m -1058.46383,-1.6524 c 1.4434,-2.6634 0.4458,4.3115 0,0 z m 1053.00003,-2 c 1.4434,-2.6634 0.4459,4.3115 0,0 z m -1677.51256,-2.3145 c -4.382,-4.7652 8.89777,3.7606 0,0 z m 1688.43366,-0.1022 c 2.5549,-3.5875 2.5549,3.5874 0,0 z m -1755.36167,-1.5 c -25.25419,-18.083 12.86129,-42.8997 24.15106,-18.8991 -3.41322,11.6391 -6.9071,23.2848 -24.15106,18.8991 z m 39.36163,-1.059 c 1.15631,-3.5186 2.67048,3.2769 0,0 z m 406,0.5 c 2.8802,-1.9057 2.33371,3.4347 0,0 z m -397.5,-2.941 c 1.20936,-3.6562 2.46629,3.5623 0,0 z m -5.48469,-3.75 c 7.60561,-14.5238 4.41492,6.8683 0,0 z m 385.179,-2.1299 c -2.40962,-3.8274 7.34817,-2.0918 0,0 z m 1326.01633,-0.5151 c 5.0799,-4.5391 -0.8818,4.7536 0,0 z m -1704.71064,-0.605 c 2.46629,-3.5623 1.20936,3.6561 0,0 z m 3.5,0 c 2.46629,-3.5623 1.20936,3.6561 0,0 z m 605.81251,-0.6831 c 4.3834,-1.4324 0.4336,1.925 0,0 z m -227.35575,-2.0669 c -4.65733,-11.717 4.7457,6.0779 0,0 z m -13.72957,-2.5185 c -0.0178,-7.671 7.37381,2.5327 0,0 z m 5.27281,0.3275 c 0.11704,-4.3267 3.04983,0.9095 0,0 z m 779.50004,-3.059 c 1.2094,-3.6562 2.4663,3.5623 0,0 z m 11,-1 c 1.2094,-3.6562 2.4663,3.5623 0,0 z m -349.91993,-0.8704 c -1.5068,-4.2987 7.0218,-1.0028 0,0 z m 3.4199,-4.1296 c 2.4663,-3.5623 1.2094,3.6561 0,0 z m -9.1875,-0.6831 c 4.3835,-1.4324 0.4337,1.925 0,0 z m 523.00003,0 c 4.3834,-1.4324 0.4336,1.925 0,0 z m -525.31253,-3.3169 c 2.5632,-3.7039 3.8442,3.5852 0,0 z m 24.5,0.107 c 2.8681,-4.1033 6.8972,-1.0583 0,0 z m -532.92106,-3.6903 c 1.44327,-2.6634 0.44611,4.3114 0,0 z m 514.42816,0.5947 c 1.5045,-2.1393 2.5713,3.8905 0,0 z m -8.1533,-1.5319 c -0.9627,-6.6363 6.9676,0.7517 0,0 z m 29.6462,-1.4795 c 3.9032,-3.6531 3.9032,3.6531 0,0 z m -16,-0.393 c 0.4557,-2.6851 5.9134,0.8961 0,0 z m 8.8028,-1.3949 c 1.6023,-6.5555 2.8228,1.1805 0,0 z m 543.19723,-3.621 c 2.5578,-4.0792 4.0479,-0.01 0,0 z m -1277.00004,-2.0911 c -30.00332,-11.0441 2.99908,-47.8676 14.68941,-18.6688 5.57748,10.6358 -9.59678,19.0011 -14.68941,18.6688 z m 711.00001,0.5 c 2.4663,-3.5623 1.2094,3.6561 0,0 z m 31.288,-2.0479 c -1.9825,-8.525 5.4418,8.6852 0,0 z m 522.71203,1.6069 c 1.8976,-5.0354 3.1061,3.6266 0,0 z m 6.6392,0.7468 c -21.5058,-16.2592 14.2933,-28.2819 5.3608,-15.3058 -19.509,5.6329 3.2315,-1.6595 -1.1136,13.213 l 0.9472,0.786 -5.1944,1.3068 0,0 z m 11.8803,-1.5558 c -19.5915,-12.7095 32.3205,-7.0689 0,0 z m -548.26953,0.5877 c -2.0127,-7.0657 5.2055,1.5683 0,0 z m -13,-1.8335 c -3.0491,-7.9163 6.0355,5.5878 0,0 z m -983.25001,-0.5042 c 2.46629,-3.5623 1.20936,3.6561 0,0 z m 976.00001,0 c 2.555,-3.5875 2.555,3.5874 0,0 z m 565.50003,0 c 1.2094,-3.6562 2.4663,3.5623 0,0 z m -910.68754,-0.6831 c 4.38339,-1.4324 0.43361,1.925 0,0 z m 898.18754,-0.7855 c 4.183,-3.5398 3.5881,4.9471 0,0 z m -1531.45733,-0.4607 c -1.1237,-3.8604 3.87718,0.6283 0,0 z m 981.9573,-1.0691 c 1.2094,-3.6562 2.4663,3.5623 0,0 z m 560.13843,-0.5 c 0.8654,-5.2821 2.3735,5.247 0,0 z m -534.90513,-0.6241 c 3.7101,-3.3473 0.7538,2.2763 0,0 z m -1013.22323,-2.8922 c 3.08944,-2.9454 0.78267,3.5696 0,0 z m 987.30243,0.3332 c 4.3835,-1.4324 0.4337,1.925 0,0 z m 16.6875,-1.3169 c 4.0932,-3.3641 2.4998,4.7275 0,0 z m 542.83333,-0.5412 c 7.5459,-3.1038 0.8761,4.8952 0,0 z m 13.682,-0.7088 c -0.9803,-11.721 4.005,5.4816 0,0 z m -560.37913,-1.2443 c 3.0161,-4.2619 0.8027,5.1537 0,0 z m 551.85113,0.4738 c -3.1,-17.4425 16.0499,-17.1335 0,0 z m -1550.88734,-5.5795 c -0.88065,-7.8812 5.8795,3.1607 0,0 z m 1729.40004,-1.1218 c -39.4064,-30.1008 42.6217,-25.1691 0,0 z m -186.2086,-3.9677 c 4.2455,-10.4048 8.8715,6.742 0,0 z m -1713.29139,-5.3105 c 2.5549,-3.5875 2.5549,3.5874 0,0 z m 821.49995,-6 c 2.55495,-3.5875 2.55494,3.5874 0,0 z m 871.60494,-3.7173 c -30.8959,-13.7467 9.264,-58.4617 24.1561,-32.813 8.6477,12.1128 -5.4665,34.0547 -24.1561,32.813 z m -1400.10494,-2.2827 c 1.20936,-3.6562 2.46629,3.5623 0,0 z m 1568.57894,-3.5833 c 1.4434,-2.6634 0.4459,4.3115 0,0 z m -1432.57894,-2.4167 c 2.46629,-3.5623 1.20936,3.6561 0,0 z m 900.50001,-2.393 c 3.9042,-3.2605 4.008,1.7751 0,0 z m 204.63843,-1.107 c 2.3735,-5.247 0.8654,5.2821 0,0 z m -1136.82594,-1.1831 c 4.38339,-1.4324 0.43361,1.9251 0,0 z m 201.40945,-7.4828 c 8.59631,-4.0613 1.71087,3.7179 0,0 z m 10.361,-0.6999 c -2.35157,-4.9689 3.6563,1.4374 0,0 z m 356.41706,-3.1342 c 2.4662,-3.5623 1.2094,3.6561 0,0 z m -365.00001,-3.032 c -2.65946,-3.4999 6.18109,-2.065 0,0 z m 1542.43094,-2.0798 c 8.8389,-7.0727 2.5193,-7.7504 0,0 z m -1535.428,-1.1382 c 14.27363,-2.6061 2.5919,2.8815 0,0 z m -8.00294,-4.25 c -2.78128,-4.1964 8.38302,4.0341 0,0 z m 1539.24024,-0.5303 c 13.6391,-22.2932 -6.0718,10.2518 2.8307,1.9657 l -2.8275,-1.9654 0,-3e-4 z m -1998.42769,-11.6528 c 4.3833,-1.4324 0.4336,1.9251 0,0 z m -6.8125,-0.7566 c 3.3267,-4.6899 5.2689,1.32 0,0 z m 6.7333,-2.6844 c 3.7099,-3.3472 0.7537,2.2763 0,0 z m 1799.68969,-0.8529 c -37.9249,-6.1882 -17.4387,-67.8909 14.318,-55.8491 26.1534,6.2793 27.3138,39.1454 5.2576,52.2699 -0.6847,1.2563 -12.5501,3.5968 -19.5756,3.5792 z m -1800.78469,-2.523 c 2.3736,-5.247 0.8654,5.2821 0,0 z m 1659.88659,0.5402 c 0.943,-5.7287 3.2356,1.8035 0,0 z m -769.52493,-2.0716 c 3.9041,-3.2605 4.008,1.7751 0,0 z m 349.50714,0.043 c 1.5045,-2.1392 2.5713,3.8905 0,0 z m -15.8076,-1.3521 c -0.2827,-8.8039 3.0656,5.0321 0,0 z m 33.3005,-1.5924 c 14.03239,-8.5102 -2.3224,5.9059 0,0 z m 390.63949,-0.7608 c -1.5908,-5.3827 6.4542,0.3283 0,0 z m 14.9319,-1.8775 c -5.6874,-12.415 9.5704,6.2457 0,0 z m -1665.55509,-0.4187 c 1.6123,-4.6643 7.3236,-0.2599 0,0 z m 1658.78999,-1.0101 c 6.0995,-9.8795 1.533,5.0471 0,0 z m -415.92149,-0.75 c -14.7741,-23.5458 21.895,-4.7905 4.2838,-7.1485 -0.8276,-11.5446 -10.4325,2.3287 -4.2838,7.1485 z m -1235.2182,-1.9167 c -3.0799,-4.5287 4.3998,0.8553 0,0 z m 1125.33336,-0.3923 c 2.8802,-1.9056 2.3337,3.4347 0,0 z m -777.8851,-2.4602 c -12.15115,-8.5898 -19.43315,-22.5933 -13.4774,-38.539 7.39392,-16.1029 40.5965,-23.495 28.06131,-20.9418 14.21388,1.6181 36.40605,25.169 25.77186,19.0524 8.98333,20.6465 -11.42488,45.5831 -27.0577,40.3471 -4.49783,0.2355 -8.78826,-2.5446 -13.29807,0.081 z m -5.65762,-11.4117 c 1.1237,-3.8604 -3.87717,0.6283 0,0 z m -7.45729,-10.1871 c -3.47056,-1.724 -1.65012,4.6687 0,0 z m 135.5,18.5333 c -6.34871,-8.2703 10.43519,8.0513 0,0 z m 1465.50004,1.5847 c 2.5549,-3.5875 2.5549,3.5874 0,0 z m -865.00003,-3.9521 c -11.7484,-11.5149 -20.7083,-32.9559 -14.3329,-46.6221 4.3668,-12.0286 28.7794,-31.1554 43.0983,-18.8796 16.0772,2.6847 48.8039,18.9394 32.0695,31.5752 -10.6278,0.6144 -21.8543,25.1328 -11.7908,20.5862 -13.6004,8.7399 -31.0423,13.9105 -49.0441,13.3403 z m 29.5,-5.0479 c -2.0671,-4.8044 -6.9113,4.0233 0,0 z m 15.5,-8.441 c -2.3337,-3.4348 -2.8802,1.9056 0,0 z m 16.4175,-26.2047 c -0.3641,-5.912 -13.7688,10.8617 0,0 z m -3.6106,-3.8808 c -3.5255,0.1447 1.0314,4.1698 0,0 z m -10.5172,-9.4735 c -3.3945,-7.1638 -0.82,7.2098 0,0 z m 5.1692,50.9335 c -2.1568,-3.5438 2.8169,0.03 0,0 z m -649.95891,-2.9335 c 2.65267,-3.8567 4.98835,3.6301 0,0 z m 209.57895,-0.7186 c -45.78347,-26.5042 37.87044,-31.3081 0.58541,-0.038 l -0.58541,0.038 0,-4e-4 z m 321.36826,-0.196 c -4.9975,-13.5788 10.0045,4.1086 0,0 z m 5.5528,-0.1444 c 2.8802,-1.9056 2.3337,3.4347 0,0 z m 4.0812,-1.691 c 3.0755,-14.7945 6.2147,-11.9354 4.988,-16.9422 3.2602,4.4695 14.0636,11.2232 -4.988,16.9422 z m 2.9188,-14.25 c -6.0179,-3.4248 -1.6122,4.2168 0,0 z m 98,13.5 c 2.4793,-5.269 2.4793,5.269 0,0 z m -647.50001,-1.5 c 2.49984,-4.7276 4.09316,3.364 0,0 z m 4.5078,-0.75 c 10.83965,-8.2662 3.49412,1.8483 0,0 z m 587.54501,-2.1646 c 0.32,-4.8937 4.5202,1.9024 0,0 z m -62.8028,-1.7747 c -0.7333,-8.974 17.0517,-0.5552 0,0 z m -1079.86846,-3.0017 c -25.8174,-8.1689 -36.6547,-46.4374 -6.953,-57.309 8.7108,-3.8756 22.0967,3.3949 27.2569,5.6442 9.0406,8.7783 14.214,14.1017 11.991,32.9692 -2.4707,5.5166 -12.0692,16.516 -20.7483,15.8164 1.3426,-5.0508 -10.7708,3.5071 -11.5466,2.8792 z m 1108.46356,-2.8521 c -1.0414,-6.5958 4.5207,5.7367 0,0 z m -27.6957,-0.9857 c 25.0987,-13.3738 5.6249,2.3703 0,0 z m 10.8506,-0.4712 c 3.8442,-3.5852 2.5632,3.7039 0,0 z m 447.00003,-0.8816 c -25.0804,-25.7245 40.1425,-22.7262 0,0 z m 6.5,-8.1184 c -2.5549,-3.5875 -2.5549,3.5874 0,0 z m -564.00003,6 c 2.4662,-3.5623 1.2094,3.6561 0,0 z m -167.86783,-1.9183 c -10.09169,-37.7556 40.28513,2.4214 0,0 z m 7.40893,-8.0152 c -2.38805,-4.2113 -2.07101,2.4636 0,0 z m 259.1256,8.2668 c 6.7609,-12.3334 38.6709,-2.2085 0,0 z m 656.22793,-2.1016 c -10.7528,-41.7174 38.648,4.65 0,0 z m 8.6054,-4.2317 c 5.4886,-5.4467 -14.3306,6.4586 0,0 z m -4.5,-5 c -1.2094,-3.6561 -2.4663,3.5623 0,0 z m -604.50003,10 c 2.4663,-3.5623 1.2094,3.6561 0,0 z m -34.5,-2.059 c 2.8802,-1.9056 2.3337,3.4347 0,0 z m -166.7708,-2.1285 c 5.911,-3.8602 0.8444,4.1016 0,0 z m -3.9792,-1.3539 c -5.3512,-7.2338 7.7804,2.3551 0,0 z m 10.4705,0.2096 c -1.7548,-8.0234 3.6325,1.3811 0,0 z m -12.1023,-5.4769 c 1.2396,-11.327 14.6739,4.5914 0,0 z m 15.3818,-0.1913 c 2.4662,-3.5623 1.2094,3.6561 0,0 z m -2.7505,-1.25 c 1.6913,-5.8347 5.4685,3.159 0,0 z m 28.6762,0.5 c -2.6802,-10.3107 5.814,-0.398 0,0 z m 676.75983,-0.8978 c -3.3126,-8.7777 19.0906,-0.8812 0,0 z m -685.09513,-1.7272 c 13.8707,-3.9436 -0.8938,3.1983 0,0 z m 11.9096,0.375 c 1.2094,-3.6561 2.4662,3.5623 0,0 z m 337.50004,0 c 2.4663,-3.5623 1.2094,3.6561 0,0 z m 346.26179,-2.1741 c 1.2551,-5.7294 2.846,5.6842 0,0 z m -915.44934,0.491 c 4.38339,-1.4324 0.43361,1.9251 0,0 z m 921.68754,-0.3169 c 2.4663,-3.5623 1.2094,3.6561 0,0 z m -726.89503,-1.1699 c -8.2142,-5.5573 11.1878,0.7593 0,0 z m 281.895,-0.8301 c 2.4663,-3.5623 1.2094,3.6561 0,0 z m 88.81014,-0.4315 c -2.6262,-6.6072 6.079,4.8064 0,0 z m 345.32059,-0.357 c 16.0727,-17.7588 -12.5489,-2.1952 -1.0237,-16.6297 -16.2382,2.8911 7.9942,-19.4416 9.5286,7.7071 5.5019,3.6704 -5.3505,9.7668 -8.5049,8.9226 z m 7.3693,-8.2115 c -3.9032,-3.6531 -3.9032,3.6531 0,0 z m 2,8 c 6.018,-3.4248 1.6123,4.2168 0,0 z m 5,-1.4915 c -6.6487,-8.9853 9.1019,-0.8875 0,0 z m -530.34433,-2.0537 c 2.6369,-3.8863 1.1596,3.4493 0,0 z m 173.34434,0.5452 c 2.555,-3.5875 2.555,3.5874 0,0 z m 6.8125,0.3169 c 4.3835,-1.4324 0.4337,1.9251 0,0 z m -11.9648,-1.2738 c -14.33254,-5.5419 8.5345,-3.5398 0,0 z m 336.65229,-0.7562 c -13.0298,-3.7114 18.4475,-12.2742 0,0 z m 10,-0.2869 c 4.9884,-3.6301 2.6527,3.8567 0,0 z m -337.87269,-2.2613 c -2.2948,-10.3316 5.3954,6.6123 0,0 z m -453.85864,-1.7891 c -9.2627,-26.8202 16.134,3.5897 0,0 z m 0.2313,-3.9496 c -2.4663,-3.5623 -1.2094,3.6561 0,0 z m 448.00004,5.559 c 1.8976,-5.0354 3.1061,3.6266 0,0 z m -1111.50005,-0.559 c 3.58829,-3.8072 1.24187,3.9424 0,0 z m 1122.86165,-0.5 c -1.8722,-7.2652 3.3978,4.0468 0,0 z m -1138.20376,-2.5 c 0.87512,-4.5074 0.87512,4.5074 0,0 z m 542.34211,0.5225 c -37.59294,-1.0567 0.13517,-52.0137 10.87872,-16.8301 -0.7696,11.8942 -3.93934,10.6208 -10.87872,16.8301 z m 480.50001,1.0127 c 0.3489,-3.7657 8.2159,0.6781 0,0 z m 460.00003,-1.5942 c 2.8802,-1.9056 2.3337,3.4347 0,0 z m -361.99999,-1.941 c 6.3913,-2.3521 -0.7297,3.3054 0,0 z m 4.5,0 c 1.2094,-3.6561 2.4663,3.5623 0,0 z m 363.49999,0 c -9.7073,-5.3231 8.5269,1.1503 0,0 z m -360.18749,-1.6831 c 4.3835,-1.4324 0.4337,1.9251 0,0 z m -2.8125,-1.3169 c 2.4663,-3.5623 1.2094,3.6561 0,0 z m 357.62539,0.1818 c -10.5723,1.8568 7.0422,-7.2726 0,0 z m -823.62543,-1.6818 c 2.3776,-5.3997 3.5052,5.2924 0,0 z m -656.93337,-1.0803 c 8.68361,-4.3174 1.05477,4.5325 0,0 z m 1485.9535,0.056 c 4.7056,-4.5854 -1.8732,5.0918 0,0 z m 161.0588,-0.059 c 1.4434,-2.6634 0.4459,4.3115 0,0 z m -1858.07889,0.1904 c 0.4557,-2.6851 5.9134,0.8961 0,0 z m 1684.63569,-0.4455 c -9.5709,-14.0219 19.113,-3.6762 0,0 z m -815.39443,-1.6025 c -13.7817,13.8136 6.256,-27.7892 0,0 z m 6.5341,-1.1169 c -1.4686,-11.6434 7.7866,1.862 0,0 z m 1083.22463,0.1649 c 0.4557,-2.6851 5.9134,0.8961 0,0 z m -739.92113,-2.1903 c 1.4435,-2.6634 0.4459,4.3115 0,0 z m 623.46383,-1.3476 c -1.2734,-3.781 4.8676,0.9174 0,0 z m -1533.29274,-2.7352 c -14.0544,-17.5131 9.88529,-35.5853 22.74004,-52.0468 28.80138,-18.9729 41.85255,38.0965 14.25996,36.9944 -2.30619,7.1581 -19.3735,-2.1433 -37,15.0524 z m 16.75,-18.8339 c -2.84412,-20.3182 -6.04215,8.8755 0,0 z m 2.68311,-0.6875 c -1.92502,0.4337 1.43252,4.3834 0,0 z m 544.3169,18.2372 c -4.985,-10.7485 6.3211,3.0187 0,0 z m -109.50001,-1.0497 c 1.20936,-3.6562 2.46629,3.5623 0,0 z m 100.50001,0 c 2.4662,-3.5623 1.2094,3.6561 0,0 z m 855.00003,-2.059 c 2.8802,-1.9056 2.3337,3.4347 0,0 z m 7.5,-2.941 c 5.4655,-3.6609 3.7205,3.7552 0,0 z m -1103.23437,-2.3963 c -25.58216,0.622 -6.43862,-38.0876 4.5073,-16.9631 6.72809,-0.2553 -1.51884,16.0924 -4.5073,16.9631 z m 142.3727,-0.1037 c 2.37355,-5.247 0.86541,5.2821 0,0 z m 964.38957,0.034 c -3.773,-7.9862 4.9187,5.3524 0,0 z m -1490.21544,-1.2167 c 4.38339,-1.4324 0.43361,1.9251 0,0 z m 387.6875,-0.3169 c 2.46629,-3.5623 1.20936,3.6561 0,0 z m 140.00408,-1.9934 c 1.94251,-3.4964 12.42936,1.7914 0,0 z m 967.06736,-1.578 c -3.2621,-7.7971 6.0763,5.8097 0,0 z m -1031.68783,-1.8783 c -45.22737,-10.6615 25.13711,-36.9627 0.86639,-1.6018 l 1.25,1.0515 -2.11639,0.5503 0,0 z m 1020.35693,-1.5367 c -1.7787,-10.5859 4.7882,7.0732 0,0 z m -359.74049,-4.0136 c 1.2094,-3.6561 2.4663,3.5623 0,0 z m 370.99999,0 c 1.2094,-3.6561 2.4663,3.5623 0,0 z m 0.5153,-4.75 c 2.4226,-7.7542 4.5038,2.9663 0,0 z m -186.3486,-0.9167 c -2.7612,-5.3991 8.8079,2.2628 0,0 z m 6.3333,-0.3333 c 1.9065,-4.5025 7.0782,3.846 0,0 z m 430.5841,-1.6414 c 1.9595,-2.2616 2.1727,5.5166 0,0 z m -429.5841,-1.1443 c -29.6566,-0.1953 14.8435,-7.7555 0,0 z m 435.6105,-0.6417 c 2.5437,-20.8725 7.7491,-6.7914 0,0 z m -12.9806,-2.0726 c -1.9419,-13.2825 5.3113,3.6477 0,0 z m 5.6201,-2.7464 c 11.0761,-10.1676 2.7777,3.3647 0,0 z m 4.75,-0.2536 c 6.2458,-5.8401 -1.6081,5.5779 0,0 z m -8.8493,-3.8071 c -2.3208,-7.2654 14.2576,-6.637 0,0 z m -1726.15074,-4.6929 c 2.46629,-3.5623 1.20936,3.6561 0,0 z m 1118.81254,-5.6831 c 4.3835,-1.4324 0.4337,1.9251 0,0 z m -1049.81254,-6.1989 c 1.65012,-4.6687 3.47056,1.724 0,0 z m 560.14961,-4.5515 c -14.0431,-18.5655 31.8674,-38.7844 37.3755,-19.6043 10.2701,20.4032 -66.2333,22.9773 -34.1634,22.5406 l -3.212,-2.9335 -10e-5,0 z m 12.8504,-6.0075 c -2.3337,-3.4348 -2.8802,1.9056 0,0 z m 17.8857,-6.6296 c -4.5934,0.6725 2.6096,3.0324 0,0 z m -573.80676,14.4873 c 1.44328,-2.6634 0.44611,4.3114 0,0 z m 284.42105,-0.4167 c 1.20936,-3.6562 2.46629,3.5623 0,0 z m 947.50004,-0.845 c -13.836,-14.7379 -15.6795,-22.0928 2,-39.3117 5.1649,-5.0976 8.622,33.748 20,21.7063 -5.9755,24.7942 -36.6292,28.2992 -22,17.6031 l 0,0 z m 6,-6.155 c -2.5549,-3.5875 -2.5549,3.5874 0,0 z m -3.4928,-1.9772 c 10.3645,-19.1714 -9.1009,1.7192 0,0 z m -5.0499,-3.9537 c 1.1237,-3.8604 -3.8772,0.6284 0,0 z m 21.5427,-3.7418 c -0.3535,-12.7574 -12.7066,-4.2949 0,0 z m -4,-1.3273 c -1.2094,-3.6562 -2.4663,3.5623 0,0 z m -4,-0.393 c -0.4558,-2.6853 -5.9133,0.8965 0,0 z m -16,-1.607 c 2.4795,-3.9386 -7.3284,4.1929 0,0 z m -4,-1.5 c -0.8654,-5.2821 -2.3735,5.247 0,0 z m 8.558,-6.1511 c -2.2562,-12.0696 -5.5497,19.2615 0,0 z m 1.1251,5.4636 c -1.9252,0.4337 1.4328,4.3834 0,0 z m 12.1294,-1.75 c -3.3059,-3.6462 -3.1355,5.583 0,0 z m -19.8125,-0.062 c -2.4663,-3.5623 -1.2094,3.6561 0,0 z m 23,-2.5 c -4.8521,-5.3981 -2.5856,5.6126 0,0 z m -9,-3 c -6.0314,-5.9611 2.3959,5.3123 0,0 z m 3,-3.5 c -2.5549,-3.5875 -2.5549,3.5874 0,0 z m 5.3816,-0.5519 c -0.01,-3.2242 -3.1065,3.079 0,0 z m -432.36373,30.8122 c -30.8047,-3.917 -44.1198,-46.898 -17.1249,-67.2603 16.7061,-11.8157 34.8013,-10.1134 49.4353,-4.75 5.9674,3.8257 25.5577,26.1071 17.4213,21.634 1.9415,13.712 -11.9185,32.222 -4.7496,25.8164 -19.9407,15.976 -21.8216,25.4085 -43.948,21.7678 -0.9318,1.5784 4.6438,5.4243 -1.0341,2.7921 z m 25.9821,-7.2603 c -2.5549,-3.5875 -2.5549,3.5874 0,0 z m 23.4352,-31.8952 c 0.3009,-3.959 -5.9479,1.4915 0,0 z m -10.9352,-20.1048 c -2.5632,-3.7039 -3.8442,3.5852 0,0 z m -6,-5 c -1.2094,-3.6562 -2.4662,3.5623 0,0 z m 134.95894,63.9335 c 2.071,-2.4637 2.3879,4.2113 0,0 z m -115.64644,-2.6166 c 4.3835,-1.4324 0.4337,1.9251 0,0 z m -1236.73356,-3.9002 c 1.4433,-2.6634 0.4461,4.3114 0,0 z m 1414.73359,-5.0998 c 4.3836,-1.4325 0.4335,1.9253 0,0 z m -840.31254,-1.3169 c 3.58828,-3.8072 1.24186,3.9423 0,0 z m 781.50005,-1.059 c 2.8802,-1.9056 2.3337,3.4347 0,0 z m 3.4013,-3.2671 c -9.56484,-8.3008 11.96,5.1586 0,0 z m -70.92514,-3.2929 c 7.0121,-4.0844 -3.5116,5.3152 0,0 z m -1256.19586,-0.3863 c -14.7846,-5.7863 14.4927,-5.7943 0,0 z m 1200.46966,-1.684 c -5.9052,-7.5532 -6.7886,-1.7457 4e-4,0 l -4e-4,0 z m -1192.99996,-1.3908 c -6.055,-8.1517 8.2669,2.9582 0,0 z m 866.92466,0.4214 c -1.0586,-3.994 -9.1191,-15.2997 3.3618,-4.4772 l -3.3618,4.4767 0,5e-4 z m -787.62696,-1.2906 c -16.1307,-7.9472 13.3803,-6.3725 0,2e-4 l 0,-2e-4 z m 827.95226,-0.051 c -3.694,-4.5522 6.0343,2.1667 0,0 z m -839.24996,-0.6623 c 5.5068,-1.6231 0.9994,1.7503 0,0 z m 19.2089,0.6623 c -10.6923,-8.8567 11.8474,-26.3675 0,0 z m 8.6074,-0.8978 c -4.382,-4.7651 8.8978,3.7606 0,0 z m -112.5663,-1.9336 c -2.8212,-10.4984 9.4023,-3.9492 0,0 z m 4,-0.1096 c -6.8165,-22.8413 21.0919,-19.7693 0,0 z m 15.4886,-3.1264 c 0.6528,-15.5098 5.2093,13.5488 0,0 z m -7.9886,1.4437 c -2.5276,-7.3227 13.1011,-2.2211 0,0 z m 97.1173,0.8136 c -0.1573,-13.2803 4.9006,2.9104 0,0 z m -84.1173,-2.1899 c 1.2093,-3.6562 2.4662,3.5623 0,0 z m 63,0 c 2.4662,-3.5623 1.2093,3.6561 0,0 z m 25.5443,-0.9172 c 8.7339,-6.0656 10.0345,4.8303 0,0 z m -254.2318,0.2341 c 4.3834,-1.4325 0.4334,1.9253 0,0 z m 228.1875,-3.2099 c 10.4394,-9.068 1.4532,4.2036 0,0 z m 1571.81249,1.2099 c 4.3835,-1.4325 0.4334,1.9253 0,0 z m -1564.31249,-1.3169 c 1.2093,-3.6562 2.4662,3.5623 0,0 z m 2.2639,-1.4543 c -0.1766,-16.317 4.4617,0.3158 0,0 z m -85.7639,-0.4387 c 0.9394,-4.8687 4.044,1.7543 0,0 z m 1644.58779,0.035 c 13.8358,-13.074 3.6452,-2.6603 0,0 z m -816.50889,-2.7254 c 1.44328,-2.6634 0.44611,4.3114 0,0 z m -755.5232,-0.3265 c 2.0766,-6.864 7.2352,-1.0958 0,0 z m 23.5522,-0.4601 c 1.6546,-10.3155 14.0325,-2.4952 0,0 z m 10.8921,-0.071 c 1.8976,-5.0354 3.106,3.6266 0,0 z m -102.5,-2.559 c 1.2418,-3.9424 3.5882,3.8072 0,0 z m 78.1666,0.3333 c -2.3294,-5.5791 4.8369,0.4802 0,0 z m 24,-1 c -7.3122,-18.9099 13.1787,4.3809 0,0 z m -11.8982,-1.5018 c 4.6591,-3.4349 1.438,2.229 0,0 z m 1911.11319,0.5735 c -21.2186,-22.9408 -34.0678,25.7469 -30.1816,-22.4053 4.7049,2.3569 8.6688,-29.8569 0.094,-26.3209 7.2579,-23.7874 67.8131,-19.9199 55.6003,-3.767 -12.3336,-9.973 16.0001,22.9427 -0.8985,35.0807 -13.2351,12.9889 -9.8832,13.9625 -24.614,17.4125 z m -1934.88159,-2.405 c 2.5549,-3.5875 2.5549,3.5874 0,0 z m 26,-2 c 3.9031,-3.6531 3.9031,3.6531 0,0 z m 1483.56639,0.1022 c -3.3018,-5.4531 8.6431,4.0123 0,0 z m -1500.59089,-2.0565 c 5.8595,-7.2587 -1.9803,5.8666 0,0 z m 891.83696,1.2712 c 4.3835,-1.4325 0.4334,1.9253 0,0 z m -899.20556,-2.8987 c 3.8767,-26.8719 25.6582,-0.5675 0,0 z m 27.3931,0.5818 c 2.9599,-9.6103 7.5832,1.6193 0,0 z m -24,-1.059 c 2.8802,-1.9056 2.3337,3.4347 0,0 z m 13,-0.941 c 7.3838,-7.5444 -2.7645,7.2706 0,0 z m 6,0.941 c 2.8802,-1.9056 2.3337,3.4347 0,0 z m 1492.49999,0.059 c 2.4663,-3.5623 1.2094,3.6561 0,0 z m 4.5,-1.5941 c 3.8303,-6.3565 9.4957,-7.2671 0,0 z m -1495.41659,-3.049 c -1.6591,-6.9127 7.0016,5.2182 0,0 z m -9.3334,-2.1069 c -5.4506,-6.6793 11.0315,0.2462 0,0 z m 18.9761,-0.8287 c 7.0738,-5.0128 -4.4239,4.7702 0,0 z m 306.02385,-0.3649 c 1.70894,-12.268 25.97131,0.033 0,0 z m 8.5625,1.2605 c 4.38348,-1.4325 0.4334,1.9253 0,0 z m 772.18751,-1.2099 c 6.1885,-6.5796 2.558,4.3741 0,0 z m 381.00003,-0.666 c 3.1061,-3.6267 1.8976,5.0354 0,0 z m 4,0.559 c 2.4663,-3.5623 1.2094,3.6561 0,0 z m -1479.19999,-1.2 c 5.2284,-2.7314 0.5656,3.8627 0,0 z m 1500.01249,0.5169 c 4.3835,-1.4325 0.4334,1.9253 0,0 z m -1393.81254,-1.3759 c 2.8802,-1.9056 2.33371,3.4347 0,0 z m -116.05385,-0.9955 c 4.7385,-7.7439 10.4493,1.7784 0,0 z m 86.50095,-1.1122 c -19.93947,-8.1065 -15.10188,-36.5223 5.00967,-37.5812 18.34247,6.7771 13.41839,39.6277 15.96131,30.4188 -4.0107,4.4645 -11.66927,8.8705 -20.97098,7.1624 z m 16.5529,-16.7743 c -1.89761,-5.0354 -3.10608,3.6266 0,0 z m -8,-8.059 c -2.47331,-5.3489 -6.24191,-1.9299 0,0 z m -10,-1 c -1.20936,-3.6562 -2.46629,3.5623 0,0 z m 1402.50004,27 c 2.4663,-3.5623 1.2094,3.6561 0,0 z m -1321.50004,-1.059 c 2.8802,-1.9056 2.33371,3.4347 0,0 z m 249.84956,-1.4709 c 3.9818,-10.7792 6.32125,8.205 0,0 z m -98.03206,0.1517 c -9.51425,-23.7973 26.27221,-13.6882 12.59247,-5.9958 0.26055,5.9865 -8.51618,6.2826 -12.59247,5.9958 z m 10.1825,-4.6218 c -2.55494,-3.5875 -2.55494,3.5874 0,0 z m 7,3.014 c -9.06556,-6.1099 10.03563,-1.5146 0,0 z m 169.40403,-1.4035 c -18.8673,-7.5235 -1.36351,-41.1063 10.12381,-20.9825 11.09451,11.0535 -3.8997,17.8167 -10.12381,20.9825 z m 7.59597,-10.7175 c -5.30381,-1.7943 -0.3123,4.2758 0,0 z m -4,-8.893 c -1.73733,-4.0719 -3.47334,2.693 0,0 z m 595.00001,18.941 c 2.8802,-1.9056 2.3337,3.4347 0,0 z m 388.00003,-0.941 c 2.4663,-3.5623 1.2094,3.6561 0,0 z m -1075.36167,-1.5 c 2.37355,-5.247 0.8654,5.2821 0,0 z m 5.93333,0.75 c 2.74077,-5.5569 3.12452,3.2851 0,0 z m -544.35115,-2.6234 c -7.1229,-9.4576 -10.5563,-10.3577 5.2736,-12.0358 -13.5461,2.2316 -7.8723,-23.4181 -2.2653,-15.3578 2.5167,-13.6818 17.6614,3.8906 32.5045,-7.83 -10.8005,8.0898 -16.0453,10.9544 5.7667,15.2357 3.9893,12.6061 -9.521,6.4813 -11.9424,6.3616 1.9415,-8.3455 -25.6742,-9.9884 -7.1795,0.6851 0.4517,17.0623 -16.3282,17.2901 -12.8781,5.3149 -6.3676,-8.8294 -7.6607,17.9393 -9.2795,7.6263 z m 14.1288,-15.1586 c -3.0116,-5.1684 -0.1598,6.7244 0,0 z m -3.3493,-2.968 c -2.3736,-5.247 -0.8655,5.2821 0,0 z m 4.3299,-4.9269 c 2.6774,-5.0485 -11.5079,-1.3367 0,0 z m 5.0663,-2.9828 c 8.5686,-6.9506 -5.242,-5.7226 0,0 z m -11.3962,-2.0903 c -4.6474,-10.6366 -6.4645,-0.6374 0,0 z m -2.0717,28.1717 c -4.6545,-15.6629 17.7459,5.2932 0,0 z m 3.8785,-3.1982 c -3.5254,0.1447 1.0314,4.1698 0,0 z m 1210.69316,3.5265 c 2.4663,-3.5623 1.2094,3.6561 0,0 z m 396.95623,-0.071 c -2.3053,-4.2969 5.7659,-0.7607 0,0 z m -1592.89689,-0.8332 c 0.1683,-5.6081 5.7129,-5.6306 0,0 z m -6.5593,-1.096 c 2.4662,-3.5623 1.2093,3.6561 0,0 z m 522.99995,-0.5674 c 5.70939,-3.4456 6.36695,5.1868 0,0 z m -518.88395,-1.9826 c -6.5295,-7.5618 5.9727,-2.0167 0,0 z m 6.7655,0.3 c -0.4834,-12.8801 9.4663,3.7929 0,0 z m 1422.93099,-1.4331 c 4.3836,-1.4325 0.4335,1.9253 0,0 z m -1415.81249,-2.0312 c 5.6754,-3.4271 1.3596,4.7211 0,0 z m -54,-4.3447 c 2.8802,-1.9056 2.3337,3.4347 0,0 z m 1629.71029,-0.941 c -6.2271,-11.1575 5.2939,4.4524 0,0 z m 7.0116,-1.1219 c 3.1974,-26.3862 10.5101,-2.934 0,0 z m -1629.16619,-0.7879 c -17.7443,-9.2303 -2.605,-22.1126 0,0 z m 326.94425,-3.0902 c 2.46629,-3.5623 1.20936,3.6561 0,0 z m 1299.65454,-0.552 c 3.0645,-7.2992 3.4789,5.317 0,0 z m -3.6545,-1.448 c 2.4663,-3.5623 1.2094,3.6561 0,0 z m -1617.49999,-3.5833 c 2.3112,-11.6474 2.1004,12.6471 0,0 z m 2074.07889,2 c 1.4434,-2.6634 0.4459,4.3115 0,0 z m -2080.07889,-1.3453 c 3.8127,-11.5296 7.4468,1.5067 0,0 z m 1618.99999,-0.1304 c 2.8802,-1.9056 2.3337,3.4347 0,0 z m -1569.60139,-2.4 c 9.333,-16.2984 6.0227,8.8207 0,0 z m 9.4139,1.7759 c 4.3834,-1.4325 0.4334,1.9253 0,0 z m -49.8125,-4.3169 c -6.0063,-4.8637 2.4783,0.8305 0,0 z m -12.25,-0.6893 c -6.4463,-4.3425 7.3698,2.0438 0,0 z m 47.9605,-1.3097 c 3.6765,-9.3395 3.184,7.9486 0,0 z m -52.7105,-1.9876 c 6.2819,-7.4646 3.0784,2.8663 0,0 z m 7.3339,-0.3452 c 25.0613,-14.6759 10.4011,1.3786 0,0 z m 857.47855,0.6487 c 4.38348,-1.4325 0.4334,1.9253 0,0 z m 770.18754,-0.3169 c 3.8442,-3.5852 2.5632,3.7039 0,0 z m -1577.30309,-1.3931 c -2.7892,-6.4829 3.702,1.5586 0,0 z"
       id="path3018"
       inkscape:connector-curvature="0" />
  </g>
</svg>
