<svg width="1021" height="1021" viewBox="0 0 1021 1021" fill="none" xmlns="http://www.w3.org/2000/svg">
<g clip-path="url(#clip0)">
<path d="M649.897 300.008C639.549 317.961 653.784 344.547 674.465 345.882C695.146 347.218 712.687 322.69 704.737 303.554C696.787 284.417 667.029 279.535 653.383 295.134" fill="#F3F2ED"/>
<path d="M-31.7961 424.864C-49.3526 435.859 -48.9555 466.166 -31.1143 476.691C-13.273 487.221 13.4488 472.917 14.5839 452.232C15.719 431.547 -9.27398 414.404 -28.1621 422.915" fill="#F3F2ED"/>
<path d="M995.037 424.864C977.481 435.859 977.878 466.166 995.719 476.691C1013.56 487.221 1040.28 472.917 1041.42 452.232C1042.55 431.547 1017.56 414.404 998.671 422.915" fill="#F3F2ED"/>
<path d="M436.395 0.581531C432.224 11.8847 438.565 24.9006 448.148 32.2008C457.73 39.5009 474.769 49.8575 481.6 45.0964C488.431 40.3352 482.438 14.0587 471.099 4.32783C459.76 -5.40303 449.439 -6.70659 436.395 0.581531Z" fill="#F3F2ED"/>
<path d="M-31.7961 404.809C-49.3526 415.803 -48.9555 446.111 -31.1143 456.636C-13.273 467.165 13.4488 452.862 14.5839 432.177C15.719 411.491 -9.27398 394.348 -28.1621 402.86" fill="#F3F2ED"/>
<path d="M436.395 -19.4739C432.224 -8.17074 438.565 4.8452 448.148 12.1454C457.73 19.4455 474.769 29.8021 481.6 25.0409C488.431 20.2798 482.438 -5.99672 471.099 -15.7276C459.76 -25.4584 449.439 -26.7621 436.395 -19.4739Z" fill="#F3F2ED"/>
<path d="M785.608 1002.74C783.891 1003.88 782.058 1004.86 780.378 1006.05C777.951 1007.77 775.741 1009.79 773.783 1012.03C767.033 1019.75 763.238 1030.09 763.627 1040.35C764.205 1055.69 773.667 1070.15 787.032 1077.69C803.261 1086.85 824.415 1085.71 840.323 1076C856.231 1066.29 866.744 1048.77 869.247 1030.3C871.345 1014.84 867.711 998.042 856.949 986.739C846.187 975.436 827.688 971.18 814.255 979.122C810.902 981.103 807.673 983.297 804.624 985.728C800.738 988.829 797.18 992.306 793.578 995.728C791.589 997.617 789.627 999.586 787.517 1001.34C786.908 1001.84 786.266 1002.3 785.608 1002.74Z" fill="#F3F2ED"/>
<path d="M138.265 794.922C132.738 793.41 129.092 793.514 124.283 790.061C119.911 786.92 116.285 782.969 113.898 778.104C97.9702 745.602 144.426 714.488 172.448 729.851C196.398 742.983 195.7 785.436 170.186 795.187C160.078 799.054 148.706 797.778 138.265 794.922Z" fill="#F3F2ED"/>
<path d="M869.878 621.748C868.526 624.828 867.407 628.009 866.568 631.266C864.683 638.606 864.23 646.351 865.509 653.836C866.689 660.735 870.383 666.23 875.738 670.747C889.407 682.283 908.42 684.465 926.225 686.157C938.964 687.369 953.023 688.239 963.295 680.61C976.083 671.116 977.434 651.458 970.367 637.182C963.299 622.907 949.943 612.923 936.678 604.103C928.748 598.828 920.208 593.614 910.698 593.096C900.53 592.543 890.699 594.99 882.934 601.792C879.023 605.218 876.01 610.344 873.399 614.832C872.1 617.071 870.916 619.381 869.878 621.748Z" fill="#F3F2ED"/>
<path d="M436.395 1027.42C432.224 1038.72 438.565 1051.73 448.148 1059.03C457.73 1066.33 474.769 1076.69 481.6 1071.93C488.431 1067.17 482.438 1040.89 471.099 1031.16C459.76 1021.43 449.439 1020.13 436.395 1027.42Z" fill="#F3F2ED"/>
</g>
<defs>
<clipPath id="clip0">
<rect width="1021" height="1021" fill="white"/>
</clipPath>
</defs>
</svg>
