<svg width="1015" height="1021" viewBox="0 0 1015 1021" fill="none" xmlns="http://www.w3.org/2000/svg">
<g clip-path="url(#clip0)">
<path d="M646.078 300.008C635.791 317.961 649.942 344.547 670.502 345.882C691.061 347.218 708.499 322.69 700.595 303.554C692.692 284.417 663.109 279.535 649.543 295.134" fill="#F3F2ED"/>
<path d="M388.297 60.6494C384.15 71.9526 390.455 84.9685 399.981 92.2686C409.507 99.5688 426.446 109.925 433.236 105.164C440.027 100.403 434.07 74.1265 422.797 64.3957C411.525 54.6648 401.265 53.3613 388.297 60.6494Z" fill="#F3F2ED"/>
<path d="M137.453 794.922C131.958 793.41 128.334 793.514 123.553 790.061C119.206 786.92 115.601 782.969 113.229 778.104C97.3946 745.602 143.578 714.488 171.434 729.851C195.244 742.983 194.55 785.436 169.186 795.187C159.137 799.054 147.832 797.778 137.453 794.922Z" fill="#F3F2ED"/>
<path d="M864.766 621.748C863.422 624.828 862.31 628.009 861.476 631.266C859.602 638.606 859.151 646.351 860.423 653.836C861.596 660.735 865.268 666.23 870.592 670.747C884.181 682.283 903.082 684.465 920.782 686.157C933.447 687.369 947.423 688.239 957.635 680.61C970.347 671.116 971.691 651.458 964.665 637.182C957.639 622.907 944.36 612.923 931.174 604.103C923.29 598.828 914.801 593.614 905.347 593.096C895.238 592.543 885.465 594.99 877.745 601.792C873.857 605.218 870.863 610.344 868.267 614.832C866.975 617.071 865.799 619.381 864.766 621.748Z" fill="#F3F2ED"/>
<path d="M433.831 1027.42C429.684 1038.72 435.988 1051.73 445.514 1059.03C455.04 1066.33 471.979 1076.69 478.77 1071.93C485.56 1067.17 479.603 1040.89 468.33 1031.16C457.058 1021.43 446.798 1020.13 433.831 1027.42Z" fill="#F3F2ED"/>
</g>
<defs>
<clipPath id="clip0">
<rect width="1015" height="1021" fill="white"/>
</clipPath>
</defs>
</svg>
