<svg width="3141" height="1865" viewBox="0 0 3141 1865" fill="none" xmlns="http://www.w3.org/2000/svg">
<mask id="mask0" mask-type="alpha" maskUnits="userSpaceOnUse" x="0" y="0" width="3141" height="1865">
<rect width="3141" height="1865" fill="#808080"/>
</mask>
<g mask="url(#mask0)">
<circle cx="1542" cy="766" r="5" fill="#F3F2ED"/>
<circle cx="226.5" cy="1365.5" r="6.5" fill="#F3F2ED"/>
<circle cx="2757" cy="801" r="7" fill="#F3F2ED"/>
<circle cx="578.5" cy="1051.5" r="5.5" fill="#F3F2ED"/>
<circle cx="1541.5" cy="1799.5" r="6.5" fill="#F3F2ED"/>
<circle cx="33.5" cy="497.5" r="5.5" fill="#F3F2ED"/>
<circle cx="2755.5" cy="224.5" r="5.5" fill="#F3F2ED"/>
<circle cx="914.5" cy="670.5" r="6.5" fill="#F3F2ED"/>
<circle cx="1567" cy="1359" r="7" fill="#F3F2ED"/>
<circle cx="2421" cy="686" r="6" fill="#F3F2ED"/>
<circle cx="2341" cy="299" r="7" fill="#F3F2ED"/>
<circle cx="2449" cy="533" r="5" fill="#F3F2ED"/>
<circle cx="1707.5" cy="339.5" r="5.5" fill="#F3F2ED"/>
<circle cx="1385.5" cy="776.5" r="5.5" fill="#F3F2ED"/>
<circle cx="2289.5" cy="371.5" r="6.5" fill="#F3F2ED"/>
<circle cx="2454.5" cy="628.5" r="6.5" fill="#F3F2ED"/>
<circle cx="1491" cy="337" r="6" fill="#F3F2ED"/>
<circle cx="1365" cy="1533" r="6" fill="#F3F2ED"/>
<circle cx="325" cy="167" r="6" fill="#F3F2ED"/>
<circle cx="3069.5" cy="1206.5" r="6.5" fill="#F3F2ED"/>
<circle cx="2725.5" cy="1788.5" r="6.5" fill="#F3F2ED"/>
<circle cx="2423.5" cy="1553.5" r="6.5" fill="#F3F2ED"/>
<circle cx="2409.5" cy="1383.5" r="5.5" fill="#F3F2ED"/>
<circle cx="1941" cy="90" r="6" fill="#F3F2ED"/>
<circle cx="2302" cy="1861" r="5" fill="#F3F2ED"/>
<circle cx="2276.5" cy="1667.5" r="6.5" fill="#F3F2ED"/>
<circle cx="499.5" cy="623.5" r="5.5" fill="#F3F2ED"/>
<circle cx="2595.5" cy="25.5" r="5.5" fill="#F3F2ED"/>
<circle cx="871.5" cy="544.5" r="6.5" fill="#F3F2ED"/>
<circle cx="2492.5" cy="1018.5" r="5.5" fill="#F3F2ED"/>
<circle cx="372" cy="81" r="6" fill="#F3F2ED"/>
<circle cx="111.5" cy="735.5" r="6.5" fill="#F3F2ED"/>
<circle cx="2554" cy="42" r="7" fill="#F3F2ED"/>
<circle cx="480" cy="1463" r="5" fill="#F3F2ED"/>
<circle cx="2865" cy="1006" r="6" fill="#F3F2ED"/>
<circle cx="226" cy="1605" r="5" fill="#F3F2ED"/>
<circle cx="2672" cy="1428" r="5" fill="#F3F2ED"/>
<circle cx="3074.5" cy="1605.5" r="6.5" fill="#F3F2ED"/>
<circle cx="1869.5" cy="74.5" r="6.5" fill="#F3F2ED"/>
<circle cx="2660" cy="688" r="5" fill="#F3F2ED"/>
<circle cx="567" cy="42" r="5" fill="#F3F2ED"/>
<circle cx="847.5" cy="238.5" r="6.5" fill="#F3F2ED"/>
<circle cx="2705.5" cy="1696.5" r="6.5" fill="#F3F2ED"/>
<circle cx="828" cy="1638" r="6" fill="#F3F2ED"/>
<circle cx="822.5" cy="324.5" r="5.5" fill="#F3F2ED"/>
<circle cx="2181.5" cy="16.5" r="6.5" fill="#F3F2ED"/>
<circle cx="1542" cy="514" r="6" fill="#F3F2ED"/>
<circle cx="274" cy="1227" r="7" fill="#F3F2ED"/>
<circle cx="1994.5" cy="337.5" r="5.5" fill="#F3F2ED"/>
<circle cx="1638" cy="1478" r="5" fill="#F3F2ED"/>
<circle cx="2908" cy="730" r="5" fill="#F3F2ED"/>
<circle cx="387.5" cy="1111.5" r="5.5" fill="#F3F2ED"/>
<circle cx="2133.5" cy="149.5" r="6.5" fill="#F3F2ED"/>
<circle cx="2146" cy="374" r="7" fill="#F3F2ED"/>
<circle cx="2866.5" cy="1068.5" r="5.5" fill="#F3F2ED"/>
<circle cx="2874" cy="1115" r="5" fill="#F3F2ED"/>
<circle cx="697" cy="1051" r="7" fill="#F3F2ED"/>
<circle cx="1284" cy="1335" r="7" fill="#F3F2ED"/>
<circle cx="529" cy="1575" r="5" fill="#F3F2ED"/>
<circle cx="1691.5" cy="548.5" r="6.5" fill="#F3F2ED"/>
</g>
</svg>
